G04 #@! TF.FileFunction,Soldermask,Bot*
%FSLAX46Y46*%
G04 Gerber Fmt 4.6, Leading zero omitted, Abs format (unit mm)*
G04 Created by KiCad (PCBNEW 4.0.6) date 07/16/17 12:25:55*
%MOMM*%
%LPD*%
G01*
G04 APERTURE LIST*
%ADD10C,0.100000*%
%ADD11O,2.099260X3.900120*%
%ADD12R,10.400000X12.400000*%
%ADD13R,2.000000X2.400000*%
%ADD14R,2.400000X2.000000*%
%ADD15R,1.650000X1.900000*%
%ADD16R,3.448000X2.051000*%
%ADD17R,6.496000X6.496000*%
%ADD18R,1.974800X2.686000*%
%ADD19O,2.400000X3.000000*%
%ADD20R,3.900120X2.701240*%
%ADD21R,2.400000X3.000000*%
%ADD22C,6.800000*%
%ADD23O,1.924000X2.597100*%
%ADD24R,1.924000X2.597100*%
%ADD25R,1.700000X1.900000*%
%ADD26C,0.254000*%
G04 APERTURE END LIST*
D10*
D11*
X162000000Y-95000000D03*
X164540000Y-95000000D03*
X159460000Y-95000000D03*
D12*
X162000000Y-109264000D03*
D13*
X156500000Y-95000000D03*
X156500000Y-99000000D03*
X170000000Y-108000000D03*
X170000000Y-112000000D03*
D14*
X139750000Y-100000000D03*
X135750000Y-100000000D03*
X151750000Y-90500000D03*
X155750000Y-90500000D03*
X138750000Y-91000000D03*
X142750000Y-91000000D03*
D15*
X170000000Y-96250000D03*
X170000000Y-93750000D03*
X170000000Y-102250000D03*
X170000000Y-99750000D03*
D16*
X143750000Y-98286000D03*
D17*
X150100000Y-96000000D03*
D16*
X143750000Y-93714000D03*
D18*
X112200000Y-103620000D03*
D19*
X114740000Y-103620000D03*
X117280000Y-103620000D03*
X119820000Y-103620000D03*
X122360000Y-103620000D03*
X124900000Y-103620000D03*
X127440000Y-103620000D03*
X129980000Y-103620000D03*
X132520000Y-103620000D03*
X135060000Y-103620000D03*
X137600000Y-103620000D03*
X140140000Y-103620000D03*
X142680000Y-103620000D03*
X145220000Y-103620000D03*
X147760000Y-103620000D03*
X147760000Y-88380000D03*
X145220000Y-88380000D03*
X142680000Y-88380000D03*
X140140000Y-88380000D03*
X137600000Y-88380000D03*
X135060000Y-88380000D03*
X132520000Y-88380000D03*
X129980000Y-88380000D03*
X127440000Y-88380000D03*
X124900000Y-88380000D03*
X122360000Y-88380000D03*
X119820000Y-88380000D03*
X117280000Y-88380000D03*
X114740000Y-88380000D03*
X112200000Y-88380000D03*
D20*
X163299980Y-88000000D03*
X168700020Y-88000000D03*
D21*
X171500000Y-80500000D03*
D19*
X168960000Y-80500000D03*
D21*
X147500000Y-80500000D03*
D19*
X144960000Y-80500000D03*
X142420000Y-80500000D03*
X139880000Y-80500000D03*
D22*
X96000000Y-114000000D03*
X186000000Y-74000000D03*
X186000000Y-114000000D03*
X96000000Y-74000000D03*
D23*
X122350000Y-80423800D03*
X117270000Y-80423800D03*
X114730000Y-80423800D03*
X112190000Y-80423800D03*
X124890000Y-80423800D03*
X119810000Y-80423800D03*
D24*
X107110000Y-80423800D03*
D23*
X109650000Y-80423800D03*
D25*
X112250000Y-82900000D03*
X112250000Y-85600000D03*
D26*
G36*
X190873000Y-118873000D02*
X91127000Y-118873000D01*
X91127000Y-71000000D01*
X92873000Y-71000000D01*
X92873000Y-117000000D01*
X92883006Y-117049410D01*
X92911447Y-117091035D01*
X92953841Y-117118315D01*
X93000000Y-117127000D01*
X189000000Y-117127000D01*
X189049410Y-117116994D01*
X189091035Y-117088553D01*
X189118315Y-117046159D01*
X189127000Y-117000000D01*
X189127000Y-71000000D01*
X189116994Y-70950590D01*
X189088553Y-70908965D01*
X189046159Y-70881685D01*
X189000000Y-70873000D01*
X93000000Y-70873000D01*
X92950590Y-70883006D01*
X92908965Y-70911447D01*
X92881685Y-70953841D01*
X92873000Y-71000000D01*
X91127000Y-71000000D01*
X91127000Y-69127000D01*
X190873000Y-69127000D01*
X190873000Y-118873000D01*
X190873000Y-118873000D01*
G37*
X190873000Y-118873000D02*
X91127000Y-118873000D01*
X91127000Y-71000000D01*
X92873000Y-71000000D01*
X92873000Y-117000000D01*
X92883006Y-117049410D01*
X92911447Y-117091035D01*
X92953841Y-117118315D01*
X93000000Y-117127000D01*
X189000000Y-117127000D01*
X189049410Y-117116994D01*
X189091035Y-117088553D01*
X189118315Y-117046159D01*
X189127000Y-117000000D01*
X189127000Y-71000000D01*
X189116994Y-70950590D01*
X189088553Y-70908965D01*
X189046159Y-70881685D01*
X189000000Y-70873000D01*
X93000000Y-70873000D01*
X92950590Y-70883006D01*
X92908965Y-70911447D01*
X92881685Y-70953841D01*
X92873000Y-71000000D01*
X91127000Y-71000000D01*
X91127000Y-69127000D01*
X190873000Y-69127000D01*
X190873000Y-118873000D01*
M02*
