G04 #@! TF.FileFunction,Legend,Bot*
%FSLAX46Y46*%
G04 Gerber Fmt 4.6, Leading zero omitted, Abs format (unit mm)*
G04 Created by KiCad (PCBNEW 4.0.6) date 07/16/17 10:36:20*
%MOMM*%
%LPD*%
G01*
G04 APERTURE LIST*
%ADD10C,0.100000*%
%ADD11C,0.300000*%
%ADD12C,0.150000*%
%ADD13C,0.120000*%
G04 APERTURE END LIST*
D10*
D11*
X169903571Y-72928573D02*
X169903571Y-72071430D01*
X169903571Y-72500002D02*
X168403571Y-72500002D01*
X168617857Y-72357145D01*
X168760714Y-72214287D01*
X168832143Y-72071430D01*
X168546429Y-73500001D02*
X168475000Y-73571430D01*
X168403571Y-73714287D01*
X168403571Y-74071430D01*
X168475000Y-74214287D01*
X168546429Y-74285716D01*
X168689286Y-74357144D01*
X168832143Y-74357144D01*
X169046429Y-74285716D01*
X169903571Y-73428573D01*
X169903571Y-74357144D01*
X168403571Y-74785715D02*
X169903571Y-75285715D01*
X168403571Y-75785715D01*
X169832143Y-76928572D02*
X169903571Y-76785715D01*
X169903571Y-76500001D01*
X169832143Y-76357143D01*
X169760714Y-76285715D01*
X169617857Y-76214286D01*
X169189286Y-76214286D01*
X169046429Y-76285715D01*
X168975000Y-76357143D01*
X168903571Y-76500001D01*
X168903571Y-76785715D01*
X168975000Y-76928572D01*
X169832143Y-78214286D02*
X169903571Y-78071429D01*
X169903571Y-77785715D01*
X169832143Y-77642857D01*
X169760714Y-77571429D01*
X169617857Y-77500000D01*
X169189286Y-77500000D01*
X169046429Y-77571429D01*
X168975000Y-77642857D01*
X168903571Y-77785715D01*
X168903571Y-78071429D01*
X168975000Y-78214286D01*
X171025000Y-75071428D02*
X170953571Y-74928571D01*
X170953571Y-74714285D01*
X171025000Y-74500000D01*
X171167857Y-74357142D01*
X171310714Y-74285714D01*
X171596429Y-74214285D01*
X171810714Y-74214285D01*
X172096429Y-74285714D01*
X172239286Y-74357142D01*
X172382143Y-74500000D01*
X172453571Y-74714285D01*
X172453571Y-74857142D01*
X172382143Y-75071428D01*
X172310714Y-75142857D01*
X171810714Y-75142857D01*
X171810714Y-74857142D01*
X172453571Y-75785714D02*
X170953571Y-75785714D01*
X172453571Y-76642857D01*
X170953571Y-76642857D01*
X172453571Y-77357143D02*
X170953571Y-77357143D01*
X170953571Y-77714286D01*
X171025000Y-77928571D01*
X171167857Y-78071429D01*
X171310714Y-78142857D01*
X171596429Y-78214286D01*
X171810714Y-78214286D01*
X172096429Y-78142857D01*
X172239286Y-78071429D01*
X172382143Y-77928571D01*
X172453571Y-77714286D01*
X172453571Y-77357143D01*
X139425000Y-74571428D02*
X139353571Y-74428571D01*
X139353571Y-74214285D01*
X139425000Y-74000000D01*
X139567857Y-73857142D01*
X139710714Y-73785714D01*
X139996429Y-73714285D01*
X140210714Y-73714285D01*
X140496429Y-73785714D01*
X140639286Y-73857142D01*
X140782143Y-74000000D01*
X140853571Y-74214285D01*
X140853571Y-74357142D01*
X140782143Y-74571428D01*
X140710714Y-74642857D01*
X140210714Y-74642857D01*
X140210714Y-74357142D01*
X140853571Y-75285714D02*
X139353571Y-75285714D01*
X140853571Y-76142857D01*
X139353571Y-76142857D01*
X140853571Y-76857143D02*
X139353571Y-76857143D01*
X139353571Y-77214286D01*
X139425000Y-77428571D01*
X139567857Y-77571429D01*
X139710714Y-77642857D01*
X139996429Y-77714286D01*
X140210714Y-77714286D01*
X140496429Y-77642857D01*
X140639286Y-77571429D01*
X140782143Y-77428571D01*
X140853571Y-77214286D01*
X140853571Y-76857143D01*
X143403571Y-76285715D02*
X142689286Y-75785715D01*
X143403571Y-75428572D02*
X141903571Y-75428572D01*
X141903571Y-76000000D01*
X141975000Y-76142858D01*
X142046429Y-76214286D01*
X142189286Y-76285715D01*
X142403571Y-76285715D01*
X142546429Y-76214286D01*
X142617857Y-76142858D01*
X142689286Y-76000000D01*
X142689286Y-75428572D01*
X141903571Y-76785715D02*
X143403571Y-77785715D01*
X141903571Y-77785715D02*
X143403571Y-76785715D01*
X144453571Y-75571429D02*
X144453571Y-76428572D01*
X145953571Y-76000001D02*
X144453571Y-76000001D01*
X144453571Y-76785715D02*
X145953571Y-77785715D01*
X144453571Y-77785715D02*
X145953571Y-76785715D01*
X147932143Y-71214287D02*
X147932143Y-72357144D01*
X148503571Y-71785715D02*
X147360714Y-71785715D01*
X147003571Y-73785716D02*
X147003571Y-73071430D01*
X147717857Y-73000001D01*
X147646429Y-73071430D01*
X147575000Y-73214287D01*
X147575000Y-73571430D01*
X147646429Y-73714287D01*
X147717857Y-73785716D01*
X147860714Y-73857144D01*
X148217857Y-73857144D01*
X148360714Y-73785716D01*
X148432143Y-73714287D01*
X148503571Y-73571430D01*
X148503571Y-73214287D01*
X148432143Y-73071430D01*
X148360714Y-73000001D01*
X147003571Y-74285715D02*
X148503571Y-74785715D01*
X147003571Y-75285715D01*
X148432143Y-76428572D02*
X148503571Y-76285715D01*
X148503571Y-76000001D01*
X148432143Y-75857143D01*
X148360714Y-75785715D01*
X148217857Y-75714286D01*
X147789286Y-75714286D01*
X147646429Y-75785715D01*
X147575000Y-75857143D01*
X147503571Y-76000001D01*
X147503571Y-76285715D01*
X147575000Y-76428572D01*
X148432143Y-77714286D02*
X148503571Y-77571429D01*
X148503571Y-77285715D01*
X148432143Y-77142857D01*
X148360714Y-77071429D01*
X148217857Y-77000000D01*
X147789286Y-77000000D01*
X147646429Y-77071429D01*
X147575000Y-77142857D01*
X147503571Y-77285715D01*
X147503571Y-77571429D01*
X147575000Y-77714286D01*
X106325000Y-74571428D02*
X106253571Y-74428571D01*
X106253571Y-74214285D01*
X106325000Y-74000000D01*
X106467857Y-73857142D01*
X106610714Y-73785714D01*
X106896429Y-73714285D01*
X107110714Y-73714285D01*
X107396429Y-73785714D01*
X107539286Y-73857142D01*
X107682143Y-74000000D01*
X107753571Y-74214285D01*
X107753571Y-74357142D01*
X107682143Y-74571428D01*
X107610714Y-74642857D01*
X107110714Y-74642857D01*
X107110714Y-74357142D01*
X107753571Y-75285714D02*
X106253571Y-75285714D01*
X107753571Y-76142857D01*
X106253571Y-76142857D01*
X107753571Y-76857143D02*
X106253571Y-76857143D01*
X106253571Y-77214286D01*
X106325000Y-77428571D01*
X106467857Y-77571429D01*
X106610714Y-77642857D01*
X106896429Y-77714286D01*
X107110714Y-77714286D01*
X107396429Y-77642857D01*
X107539286Y-77571429D01*
X107682143Y-77428571D01*
X107753571Y-77214286D01*
X107753571Y-76857143D01*
X109732143Y-71214287D02*
X109732143Y-72357144D01*
X110303571Y-71785715D02*
X109160714Y-71785715D01*
X108803571Y-72928573D02*
X108803571Y-73928573D01*
X110303571Y-73285716D01*
X108803571Y-74285715D02*
X110303571Y-74785715D01*
X108803571Y-75285715D01*
X110232143Y-76428572D02*
X110303571Y-76285715D01*
X110303571Y-76000001D01*
X110232143Y-75857143D01*
X110160714Y-75785715D01*
X110017857Y-75714286D01*
X109589286Y-75714286D01*
X109446429Y-75785715D01*
X109375000Y-75857143D01*
X109303571Y-76000001D01*
X109303571Y-76285715D01*
X109375000Y-76428572D01*
X110232143Y-77714286D02*
X110303571Y-77571429D01*
X110303571Y-77285715D01*
X110232143Y-77142857D01*
X110160714Y-77071429D01*
X110017857Y-77000000D01*
X109589286Y-77000000D01*
X109446429Y-77071429D01*
X109375000Y-77142857D01*
X109303571Y-77285715D01*
X109303571Y-77571429D01*
X109375000Y-77714286D01*
X112853571Y-74000001D02*
X111353571Y-74000001D01*
X111353571Y-74357144D01*
X111425000Y-74571429D01*
X111567857Y-74714287D01*
X111710714Y-74785715D01*
X111996429Y-74857144D01*
X112210714Y-74857144D01*
X112496429Y-74785715D01*
X112639286Y-74714287D01*
X112782143Y-74571429D01*
X112853571Y-74357144D01*
X112853571Y-74000001D01*
X112853571Y-76285715D02*
X112853571Y-75428572D01*
X112853571Y-75857144D02*
X111353571Y-75857144D01*
X111567857Y-75714287D01*
X111710714Y-75571429D01*
X111782143Y-75428572D01*
X111496429Y-76857143D02*
X111425000Y-76928572D01*
X111353571Y-77071429D01*
X111353571Y-77428572D01*
X111425000Y-77571429D01*
X111496429Y-77642858D01*
X111639286Y-77714286D01*
X111782143Y-77714286D01*
X111996429Y-77642858D01*
X112853571Y-76785715D01*
X112853571Y-77714286D01*
X115403571Y-74000001D02*
X113903571Y-74000001D01*
X113903571Y-74357144D01*
X113975000Y-74571429D01*
X114117857Y-74714287D01*
X114260714Y-74785715D01*
X114546429Y-74857144D01*
X114760714Y-74857144D01*
X115046429Y-74785715D01*
X115189286Y-74714287D01*
X115332143Y-74571429D01*
X115403571Y-74357144D01*
X115403571Y-74000001D01*
X115403571Y-76285715D02*
X115403571Y-75428572D01*
X115403571Y-75857144D02*
X113903571Y-75857144D01*
X114117857Y-75714287D01*
X114260714Y-75571429D01*
X114332143Y-75428572D01*
X115403571Y-77714286D02*
X115403571Y-76857143D01*
X115403571Y-77285715D02*
X113903571Y-77285715D01*
X114117857Y-77142858D01*
X114260714Y-77000000D01*
X114332143Y-76857143D01*
X117953571Y-74000001D02*
X116453571Y-74000001D01*
X116453571Y-74357144D01*
X116525000Y-74571429D01*
X116667857Y-74714287D01*
X116810714Y-74785715D01*
X117096429Y-74857144D01*
X117310714Y-74857144D01*
X117596429Y-74785715D01*
X117739286Y-74714287D01*
X117882143Y-74571429D01*
X117953571Y-74357144D01*
X117953571Y-74000001D01*
X117953571Y-76285715D02*
X117953571Y-75428572D01*
X117953571Y-75857144D02*
X116453571Y-75857144D01*
X116667857Y-75714287D01*
X116810714Y-75571429D01*
X116882143Y-75428572D01*
X116453571Y-77214286D02*
X116453571Y-77357143D01*
X116525000Y-77500000D01*
X116596429Y-77571429D01*
X116739286Y-77642858D01*
X117025000Y-77714286D01*
X117382143Y-77714286D01*
X117667857Y-77642858D01*
X117810714Y-77571429D01*
X117882143Y-77500000D01*
X117953571Y-77357143D01*
X117953571Y-77214286D01*
X117882143Y-77071429D01*
X117810714Y-77000000D01*
X117667857Y-76928572D01*
X117382143Y-76857143D01*
X117025000Y-76857143D01*
X116739286Y-76928572D01*
X116596429Y-77000000D01*
X116525000Y-77071429D01*
X116453571Y-77214286D01*
X120503571Y-75428572D02*
X119003571Y-75428572D01*
X119003571Y-75785715D01*
X119075000Y-76000000D01*
X119217857Y-76142858D01*
X119360714Y-76214286D01*
X119646429Y-76285715D01*
X119860714Y-76285715D01*
X120146429Y-76214286D01*
X120289286Y-76142858D01*
X120432143Y-76000000D01*
X120503571Y-75785715D01*
X120503571Y-75428572D01*
X120503571Y-77000000D02*
X120503571Y-77285715D01*
X120432143Y-77428572D01*
X120360714Y-77500000D01*
X120146429Y-77642858D01*
X119860714Y-77714286D01*
X119289286Y-77714286D01*
X119146429Y-77642858D01*
X119075000Y-77571429D01*
X119003571Y-77428572D01*
X119003571Y-77142858D01*
X119075000Y-77000000D01*
X119146429Y-76928572D01*
X119289286Y-76857143D01*
X119646429Y-76857143D01*
X119789286Y-76928572D01*
X119860714Y-77000000D01*
X119932143Y-77142858D01*
X119932143Y-77428572D01*
X119860714Y-77571429D01*
X119789286Y-77642858D01*
X119646429Y-77714286D01*
X122625000Y-75571429D02*
X122625000Y-76285715D01*
X123053571Y-75428572D02*
X121553571Y-75928572D01*
X123053571Y-76428572D01*
X121553571Y-77214286D02*
X121553571Y-77357143D01*
X121625000Y-77500000D01*
X121696429Y-77571429D01*
X121839286Y-77642858D01*
X122125000Y-77714286D01*
X122482143Y-77714286D01*
X122767857Y-77642858D01*
X122910714Y-77571429D01*
X122982143Y-77500000D01*
X123053571Y-77357143D01*
X123053571Y-77214286D01*
X122982143Y-77071429D01*
X122910714Y-77000000D01*
X122767857Y-76928572D01*
X122482143Y-76857143D01*
X122125000Y-76857143D01*
X121839286Y-76928572D01*
X121696429Y-77000000D01*
X121625000Y-77071429D01*
X121553571Y-77214286D01*
X125175000Y-75571429D02*
X125175000Y-76285715D01*
X125603571Y-75428572D02*
X124103571Y-75928572D01*
X125603571Y-76428572D01*
X125603571Y-77714286D02*
X125603571Y-76857143D01*
X125603571Y-77285715D02*
X124103571Y-77285715D01*
X124317857Y-77142858D01*
X124460714Y-77000000D01*
X124532143Y-76857143D01*
D12*
X155475000Y-98000000D02*
X155475000Y-96000000D01*
X157525000Y-96000000D02*
X157525000Y-98000000D01*
X168975000Y-111000000D02*
X168975000Y-109000000D01*
X171025000Y-109000000D02*
X171025000Y-111000000D01*
X136750000Y-98975000D02*
X138750000Y-98975000D01*
X138750000Y-101025000D02*
X136750000Y-101025000D01*
X154750000Y-91525000D02*
X152750000Y-91525000D01*
X152750000Y-89475000D02*
X154750000Y-89475000D01*
X141750000Y-92025000D02*
X139750000Y-92025000D01*
X139750000Y-89975000D02*
X141750000Y-89975000D01*
X170850000Y-94500000D02*
X170850000Y-95500000D01*
X169150000Y-95500000D02*
X169150000Y-94500000D01*
X170850000Y-100500000D02*
X170850000Y-101500000D01*
X169150000Y-101500000D02*
X169150000Y-100500000D01*
X145274000Y-94603000D02*
X142099000Y-94603000D01*
X142099000Y-94603000D02*
X142099000Y-92825000D01*
X142099000Y-92825000D02*
X145274000Y-92825000D01*
X145274000Y-99175000D02*
X142099000Y-99175000D01*
X142099000Y-99175000D02*
X142099000Y-97397000D01*
X142099000Y-97397000D02*
X145274000Y-97397000D01*
X151370000Y-92571000D02*
X145274000Y-92571000D01*
X145274000Y-92571000D02*
X145274000Y-99429000D01*
X145274000Y-99429000D02*
X153148000Y-99429000D01*
X153275000Y-99429000D02*
X153275000Y-92571000D01*
X153148000Y-92571000D02*
X151370000Y-92571000D01*
X165550420Y-88000000D02*
X166398780Y-89000760D01*
X166398780Y-89000760D02*
X166398780Y-86999240D01*
X166398780Y-86999240D02*
X165550420Y-88000000D01*
X165550420Y-88000000D02*
X165550420Y-86999240D01*
X165550420Y-88000000D02*
X165550420Y-89000760D01*
X163693680Y-86200000D02*
X163693680Y-86399800D01*
X164150720Y-86200000D02*
X164150720Y-86399000D01*
X168301240Y-86200000D02*
X168301240Y-86349000D01*
X163698760Y-89800000D02*
X163698760Y-89651000D01*
X164150720Y-89800000D02*
X164150720Y-89651000D01*
X168301240Y-89800000D02*
X168301240Y-89651000D01*
X164150720Y-86051020D02*
X164150720Y-86249140D01*
X164150720Y-89998980D02*
X164150720Y-89800860D01*
X168296160Y-86003560D02*
X168296160Y-86201680D01*
X163693680Y-86003560D02*
X168296160Y-86003560D01*
X163693680Y-86003560D02*
X163693680Y-86201680D01*
X163698760Y-89998980D02*
X163698760Y-89800860D01*
X163698760Y-89998980D02*
X168301240Y-89998980D01*
X168301240Y-89998980D02*
X168301240Y-89800860D01*
D13*
X115630000Y-84850000D02*
X115630000Y-83650000D01*
X113870000Y-83650000D02*
X113870000Y-84850000D01*
D12*
X154557143Y-96833334D02*
X154604762Y-96785715D01*
X154652381Y-96642858D01*
X154652381Y-96547620D01*
X154604762Y-96404762D01*
X154509524Y-96309524D01*
X154414286Y-96261905D01*
X154223810Y-96214286D01*
X154080952Y-96214286D01*
X153890476Y-96261905D01*
X153795238Y-96309524D01*
X153700000Y-96404762D01*
X153652381Y-96547620D01*
X153652381Y-96642858D01*
X153700000Y-96785715D01*
X153747619Y-96833334D01*
X154652381Y-97785715D02*
X154652381Y-97214286D01*
X154652381Y-97500000D02*
X153652381Y-97500000D01*
X153795238Y-97404762D01*
X153890476Y-97309524D01*
X153938095Y-97214286D01*
X172357143Y-109833334D02*
X172404762Y-109785715D01*
X172452381Y-109642858D01*
X172452381Y-109547620D01*
X172404762Y-109404762D01*
X172309524Y-109309524D01*
X172214286Y-109261905D01*
X172023810Y-109214286D01*
X171880952Y-109214286D01*
X171690476Y-109261905D01*
X171595238Y-109309524D01*
X171500000Y-109404762D01*
X171452381Y-109547620D01*
X171452381Y-109642858D01*
X171500000Y-109785715D01*
X171547619Y-109833334D01*
X171547619Y-110214286D02*
X171500000Y-110261905D01*
X171452381Y-110357143D01*
X171452381Y-110595239D01*
X171500000Y-110690477D01*
X171547619Y-110738096D01*
X171642857Y-110785715D01*
X171738095Y-110785715D01*
X171880952Y-110738096D01*
X172452381Y-110166667D01*
X172452381Y-110785715D01*
X137916666Y-98057143D02*
X137964285Y-98104762D01*
X138107142Y-98152381D01*
X138202380Y-98152381D01*
X138345238Y-98104762D01*
X138440476Y-98009524D01*
X138488095Y-97914286D01*
X138535714Y-97723810D01*
X138535714Y-97580952D01*
X138488095Y-97390476D01*
X138440476Y-97295238D01*
X138345238Y-97200000D01*
X138202380Y-97152381D01*
X138107142Y-97152381D01*
X137964285Y-97200000D01*
X137916666Y-97247619D01*
X137011904Y-97152381D02*
X137488095Y-97152381D01*
X137535714Y-97628571D01*
X137488095Y-97580952D01*
X137392857Y-97533333D01*
X137154761Y-97533333D01*
X137059523Y-97580952D01*
X137011904Y-97628571D01*
X136964285Y-97723810D01*
X136964285Y-97961905D01*
X137011904Y-98057143D01*
X137059523Y-98104762D01*
X137154761Y-98152381D01*
X137392857Y-98152381D01*
X137488095Y-98104762D01*
X137535714Y-98057143D01*
X153916666Y-93157143D02*
X153964285Y-93204762D01*
X154107142Y-93252381D01*
X154202380Y-93252381D01*
X154345238Y-93204762D01*
X154440476Y-93109524D01*
X154488095Y-93014286D01*
X154535714Y-92823810D01*
X154535714Y-92680952D01*
X154488095Y-92490476D01*
X154440476Y-92395238D01*
X154345238Y-92300000D01*
X154202380Y-92252381D01*
X154107142Y-92252381D01*
X153964285Y-92300000D01*
X153916666Y-92347619D01*
X153059523Y-92252381D02*
X153250000Y-92252381D01*
X153345238Y-92300000D01*
X153392857Y-92347619D01*
X153488095Y-92490476D01*
X153535714Y-92680952D01*
X153535714Y-93061905D01*
X153488095Y-93157143D01*
X153440476Y-93204762D01*
X153345238Y-93252381D01*
X153154761Y-93252381D01*
X153059523Y-93204762D01*
X153011904Y-93157143D01*
X152964285Y-93061905D01*
X152964285Y-92823810D01*
X153011904Y-92728571D01*
X153059523Y-92680952D01*
X153154761Y-92633333D01*
X153345238Y-92633333D01*
X153440476Y-92680952D01*
X153488095Y-92728571D01*
X153535714Y-92823810D01*
X140916666Y-93657143D02*
X140964285Y-93704762D01*
X141107142Y-93752381D01*
X141202380Y-93752381D01*
X141345238Y-93704762D01*
X141440476Y-93609524D01*
X141488095Y-93514286D01*
X141535714Y-93323810D01*
X141535714Y-93180952D01*
X141488095Y-92990476D01*
X141440476Y-92895238D01*
X141345238Y-92800000D01*
X141202380Y-92752381D01*
X141107142Y-92752381D01*
X140964285Y-92800000D01*
X140916666Y-92847619D01*
X140583333Y-92752381D02*
X139916666Y-92752381D01*
X140345238Y-93752381D01*
X172552381Y-94833334D02*
X172076190Y-94500000D01*
X172552381Y-94261905D02*
X171552381Y-94261905D01*
X171552381Y-94642858D01*
X171600000Y-94738096D01*
X171647619Y-94785715D01*
X171742857Y-94833334D01*
X171885714Y-94833334D01*
X171980952Y-94785715D01*
X172028571Y-94738096D01*
X172076190Y-94642858D01*
X172076190Y-94261905D01*
X172552381Y-95785715D02*
X172552381Y-95214286D01*
X172552381Y-95500000D02*
X171552381Y-95500000D01*
X171695238Y-95404762D01*
X171790476Y-95309524D01*
X171838095Y-95214286D01*
X172552381Y-100833334D02*
X172076190Y-100500000D01*
X172552381Y-100261905D02*
X171552381Y-100261905D01*
X171552381Y-100642858D01*
X171600000Y-100738096D01*
X171647619Y-100785715D01*
X171742857Y-100833334D01*
X171885714Y-100833334D01*
X171980952Y-100785715D01*
X172028571Y-100738096D01*
X172076190Y-100642858D01*
X172076190Y-100261905D01*
X171647619Y-101214286D02*
X171600000Y-101261905D01*
X171552381Y-101357143D01*
X171552381Y-101595239D01*
X171600000Y-101690477D01*
X171647619Y-101738096D01*
X171742857Y-101785715D01*
X171838095Y-101785715D01*
X171980952Y-101738096D01*
X172552381Y-101166667D01*
X172552381Y-101785715D01*
X153616381Y-95238095D02*
X154425905Y-95238095D01*
X154521143Y-95285714D01*
X154568762Y-95333333D01*
X154616381Y-95428571D01*
X154616381Y-95619048D01*
X154568762Y-95714286D01*
X154521143Y-95761905D01*
X154425905Y-95809524D01*
X153616381Y-95809524D01*
X153711619Y-96238095D02*
X153664000Y-96285714D01*
X153616381Y-96380952D01*
X153616381Y-96619048D01*
X153664000Y-96714286D01*
X153711619Y-96761905D01*
X153806857Y-96809524D01*
X153902095Y-96809524D01*
X154044952Y-96761905D01*
X154616381Y-96190476D01*
X154616381Y-96809524D01*
X166738095Y-91552381D02*
X166738095Y-90552381D01*
X166500000Y-90552381D01*
X166357142Y-90600000D01*
X166261904Y-90695238D01*
X166214285Y-90790476D01*
X166166666Y-90980952D01*
X166166666Y-91123810D01*
X166214285Y-91314286D01*
X166261904Y-91409524D01*
X166357142Y-91504762D01*
X166500000Y-91552381D01*
X166738095Y-91552381D01*
X165214285Y-91552381D02*
X165785714Y-91552381D01*
X165500000Y-91552381D02*
X165500000Y-90552381D01*
X165595238Y-90695238D01*
X165690476Y-90790476D01*
X165785714Y-90838095D01*
X162761905Y-85352381D02*
X162761905Y-84352381D01*
X162190476Y-85352381D02*
X162619048Y-84780952D01*
X162190476Y-84352381D02*
X162761905Y-84923810D01*
X169238095Y-85116667D02*
X168761904Y-85116667D01*
X169333333Y-85402381D02*
X169000000Y-84402381D01*
X168666666Y-85402381D01*
X113502381Y-84083334D02*
X113026190Y-83750000D01*
X113502381Y-83511905D02*
X112502381Y-83511905D01*
X112502381Y-83892858D01*
X112550000Y-83988096D01*
X112597619Y-84035715D01*
X112692857Y-84083334D01*
X112835714Y-84083334D01*
X112930952Y-84035715D01*
X112978571Y-83988096D01*
X113026190Y-83892858D01*
X113026190Y-83511905D01*
X112502381Y-84416667D02*
X112502381Y-85035715D01*
X112883333Y-84702381D01*
X112883333Y-84845239D01*
X112930952Y-84940477D01*
X112978571Y-84988096D01*
X113073810Y-85035715D01*
X113311905Y-85035715D01*
X113407143Y-84988096D01*
X113454762Y-84940477D01*
X113502381Y-84845239D01*
X113502381Y-84559524D01*
X113454762Y-84464286D01*
X113407143Y-84416667D01*
M02*
