G04 #@! TF.FileFunction,Copper,L2,Bot,Signal*
%FSLAX46Y46*%
G04 Gerber Fmt 4.6, Leading zero omitted, Abs format (unit mm)*
G04 Created by KiCad (PCBNEW 4.0.6) date 07/16/17 10:36:20*
%MOMM*%
%LPD*%
G01*
G04 APERTURE LIST*
%ADD10C,0.100000*%
%ADD11O,1.699260X3.500120*%
%ADD12R,10.000000X12.000000*%
%ADD13R,1.600000X2.000000*%
%ADD14R,2.000000X1.600000*%
%ADD15R,1.250000X1.500000*%
%ADD16R,3.048000X1.651000*%
%ADD17R,6.096000X6.096000*%
%ADD18R,1.574800X2.286000*%
%ADD19O,2.000000X2.600000*%
%ADD20R,3.500120X2.301240*%
%ADD21R,2.000000X2.600000*%
%ADD22C,6.400000*%
%ADD23O,1.524000X2.197100*%
%ADD24R,1.524000X2.197100*%
%ADD25R,1.300000X1.500000*%
%ADD26C,0.600000*%
%ADD27C,1.500000*%
%ADD28C,0.250000*%
%ADD29C,1.000000*%
%ADD30C,0.500000*%
%ADD31C,0.254000*%
G04 APERTURE END LIST*
D10*
D11*
X162000000Y-95000000D03*
X164540000Y-95000000D03*
X159460000Y-95000000D03*
D12*
X162000000Y-109264000D03*
D13*
X156500000Y-95000000D03*
X156500000Y-99000000D03*
X170000000Y-108000000D03*
X170000000Y-112000000D03*
D14*
X139750000Y-100000000D03*
X135750000Y-100000000D03*
X151750000Y-90500000D03*
X155750000Y-90500000D03*
X138750000Y-91000000D03*
X142750000Y-91000000D03*
D15*
X170000000Y-96250000D03*
X170000000Y-93750000D03*
X170000000Y-102250000D03*
X170000000Y-99750000D03*
D16*
X143750000Y-98286000D03*
D17*
X150100000Y-96000000D03*
D16*
X143750000Y-93714000D03*
D18*
X112200000Y-103620000D03*
D19*
X114740000Y-103620000D03*
X117280000Y-103620000D03*
X119820000Y-103620000D03*
X122360000Y-103620000D03*
X124900000Y-103620000D03*
X127440000Y-103620000D03*
X129980000Y-103620000D03*
X132520000Y-103620000D03*
X135060000Y-103620000D03*
X137600000Y-103620000D03*
X140140000Y-103620000D03*
X142680000Y-103620000D03*
X145220000Y-103620000D03*
X147760000Y-103620000D03*
X147760000Y-88380000D03*
X145220000Y-88380000D03*
X142680000Y-88380000D03*
X140140000Y-88380000D03*
X137600000Y-88380000D03*
X135060000Y-88380000D03*
X132520000Y-88380000D03*
X129980000Y-88380000D03*
X127440000Y-88380000D03*
X124900000Y-88380000D03*
X122360000Y-88380000D03*
X119820000Y-88380000D03*
X117280000Y-88380000D03*
X114740000Y-88380000D03*
X112200000Y-88380000D03*
D20*
X163299980Y-88000000D03*
X168700020Y-88000000D03*
D21*
X171500000Y-80500000D03*
D19*
X168960000Y-80500000D03*
D21*
X147500000Y-80500000D03*
D19*
X144960000Y-80500000D03*
X142420000Y-80500000D03*
X139880000Y-80500000D03*
D22*
X96000000Y-114000000D03*
X186000000Y-74000000D03*
X186000000Y-114000000D03*
X96000000Y-74000000D03*
D23*
X122350000Y-80423800D03*
X117270000Y-80423800D03*
X114730000Y-80423800D03*
X112190000Y-80423800D03*
X124890000Y-80423800D03*
X119810000Y-80423800D03*
D24*
X107110000Y-80423800D03*
D23*
X109650000Y-80423800D03*
D25*
X114750000Y-82900000D03*
X114750000Y-85600000D03*
D26*
X135000000Y-92500000D03*
X125000000Y-92500000D03*
X115000000Y-92500000D03*
X132500000Y-97500000D03*
X122500000Y-97500000D03*
X112500000Y-97500000D03*
X100000000Y-72500000D03*
X110000000Y-72500000D03*
X120000000Y-72500000D03*
X130000000Y-72500000D03*
X140000000Y-72500000D03*
X150000000Y-72500000D03*
X160000000Y-72500000D03*
X170000000Y-72500000D03*
X180000000Y-72500000D03*
X185000000Y-85000000D03*
X185000000Y-95000000D03*
X185000000Y-105000000D03*
X170000000Y-115000000D03*
X180000000Y-115000000D03*
X155000000Y-115000000D03*
X145000000Y-115000000D03*
X135000000Y-115000000D03*
X125000000Y-115000000D03*
X115000000Y-115000000D03*
X105000000Y-115000000D03*
X95000000Y-100000000D03*
X95000000Y-90000000D03*
X95000000Y-80000000D03*
D27*
X163299980Y-88000000D02*
X162500000Y-88000000D01*
X162500000Y-88000000D02*
X159460000Y-91040000D01*
X159460000Y-91040000D02*
X159460000Y-95000000D01*
X156500000Y-95000000D02*
X159460000Y-95000000D01*
D28*
X115000000Y-92500000D02*
X125000000Y-92500000D01*
X135750000Y-100000000D02*
X135000000Y-100000000D01*
X135000000Y-100000000D02*
X132500000Y-97500000D01*
X122500000Y-97500000D02*
X112500000Y-97500000D01*
X100000000Y-72500000D02*
X98500000Y-74000000D01*
X120000000Y-72500000D02*
X110000000Y-72500000D01*
X140000000Y-72500000D02*
X130000000Y-72500000D01*
X160000000Y-72500000D02*
X150000000Y-72500000D01*
X180000000Y-72500000D02*
X170000000Y-72500000D01*
X98500000Y-74000000D02*
X96000000Y-74000000D01*
X186000000Y-114000000D02*
X186000000Y-106000000D01*
X185000000Y-95000000D02*
X185000000Y-85000000D01*
X186000000Y-106000000D02*
X185000000Y-105000000D01*
X186000000Y-114000000D02*
X181000000Y-114000000D01*
X181000000Y-114000000D02*
X180000000Y-115000000D01*
X96000000Y-114000000D02*
X104000000Y-114000000D01*
X135000000Y-115000000D02*
X145000000Y-115000000D01*
X115000000Y-115000000D02*
X125000000Y-115000000D01*
X104000000Y-114000000D02*
X105000000Y-115000000D01*
X96000000Y-101000000D02*
X96000000Y-114000000D01*
X95000000Y-100000000D02*
X96000000Y-101000000D01*
X95000000Y-80000000D02*
X95000000Y-90000000D01*
D29*
X140140000Y-88380000D02*
X140140000Y-89610000D01*
X140140000Y-89610000D02*
X138750000Y-91000000D01*
X140140000Y-103620000D02*
X140140000Y-100390000D01*
X140140000Y-100390000D02*
X139750000Y-100000000D01*
X170000000Y-96250000D02*
X165790000Y-96250000D01*
X165790000Y-96250000D02*
X164540000Y-95000000D01*
X170000000Y-99750000D02*
X170000000Y-96250000D01*
X143750000Y-98286000D02*
X141786000Y-98286000D01*
X109650000Y-91150000D02*
X109650000Y-80423800D01*
X114000000Y-95500000D02*
X109650000Y-91150000D01*
X139000000Y-95500000D02*
X114000000Y-95500000D01*
X141786000Y-98286000D02*
X139000000Y-95500000D01*
D27*
X170000000Y-108000000D02*
X165764000Y-108000000D01*
X165764000Y-108000000D02*
X162000000Y-111764000D01*
D29*
X170000000Y-102250000D02*
X170000000Y-103764000D01*
X170000000Y-103764000D02*
X162000000Y-111764000D01*
X147760000Y-103620000D02*
X147760000Y-102510000D01*
X147760000Y-102510000D02*
X146250000Y-101000000D01*
X146250000Y-101000000D02*
X145250000Y-101000000D01*
X145250000Y-101000000D02*
X143750000Y-99500000D01*
X143750000Y-99500000D02*
X143750000Y-98286000D01*
D27*
X151750000Y-90500000D02*
X151750000Y-83750000D01*
X151750000Y-83750000D02*
X148500000Y-80500000D01*
X148500000Y-80500000D02*
X147500000Y-80500000D01*
D29*
X151750000Y-90500000D02*
X150250000Y-90500000D01*
X150250000Y-90500000D02*
X149750000Y-91000000D01*
X142750000Y-91000000D02*
X142750000Y-92714000D01*
X142750000Y-92714000D02*
X143750000Y-93714000D01*
X143750000Y-93714000D02*
X143750000Y-93000000D01*
X143750000Y-93000000D02*
X145750000Y-91000000D01*
X145750000Y-91000000D02*
X149750000Y-91000000D01*
D27*
X168960000Y-80500000D02*
X168960000Y-87740020D01*
X168960000Y-87740020D02*
X168700020Y-88000000D01*
X144960000Y-80500000D02*
X144960000Y-88120000D01*
X144960000Y-88120000D02*
X145220000Y-88380000D01*
D30*
X114750000Y-82900000D02*
X114750000Y-80443800D01*
X114750000Y-80443800D02*
X114730000Y-80423800D01*
X114750000Y-85600000D02*
X114750000Y-88370000D01*
X114750000Y-88370000D02*
X114740000Y-88380000D01*
D31*
G36*
X190290000Y-118290000D02*
X91710000Y-118290000D01*
X91710000Y-116740910D01*
X93438695Y-116740910D01*
X93805640Y-117236343D01*
X95211171Y-117829736D01*
X96736793Y-117840087D01*
X98150246Y-117265819D01*
X98194360Y-117236343D01*
X98561305Y-116740910D01*
X183438695Y-116740910D01*
X183805640Y-117236343D01*
X185211171Y-117829736D01*
X186736793Y-117840087D01*
X188150246Y-117265819D01*
X188194360Y-117236343D01*
X188561305Y-116740910D01*
X186000000Y-114179605D01*
X183438695Y-116740910D01*
X98561305Y-116740910D01*
X96000000Y-114179605D01*
X93438695Y-116740910D01*
X91710000Y-116740910D01*
X91710000Y-114736793D01*
X92159913Y-114736793D01*
X92734181Y-116150246D01*
X92763657Y-116194360D01*
X93259090Y-116561305D01*
X95820395Y-114000000D01*
X96179605Y-114000000D01*
X98740910Y-116561305D01*
X99236343Y-116194360D01*
X99829736Y-114788829D01*
X99840087Y-113263207D01*
X99265819Y-111849754D01*
X99236343Y-111805640D01*
X98740910Y-111438695D01*
X96179605Y-114000000D01*
X95820395Y-114000000D01*
X93259090Y-111438695D01*
X92763657Y-111805640D01*
X92170264Y-113211171D01*
X92159913Y-114736793D01*
X91710000Y-114736793D01*
X91710000Y-111259090D01*
X93438695Y-111259090D01*
X96000000Y-113820395D01*
X98561305Y-111259090D01*
X98194360Y-110763657D01*
X96788829Y-110170264D01*
X95263207Y-110159913D01*
X93849754Y-110734181D01*
X93805640Y-110763657D01*
X93438695Y-111259090D01*
X91710000Y-111259090D01*
X91710000Y-100285750D01*
X134115000Y-100285750D01*
X134115000Y-100926310D01*
X134211673Y-101159699D01*
X134390302Y-101338327D01*
X134623691Y-101435000D01*
X135464250Y-101435000D01*
X135623000Y-101276250D01*
X135623000Y-100127000D01*
X135877000Y-100127000D01*
X135877000Y-101276250D01*
X136035750Y-101435000D01*
X136876309Y-101435000D01*
X137109698Y-101338327D01*
X137288327Y-101159699D01*
X137385000Y-100926310D01*
X137385000Y-100285750D01*
X137226250Y-100127000D01*
X135877000Y-100127000D01*
X135623000Y-100127000D01*
X134273750Y-100127000D01*
X134115000Y-100285750D01*
X91710000Y-100285750D01*
X91710000Y-99073690D01*
X134115000Y-99073690D01*
X134115000Y-99714250D01*
X134273750Y-99873000D01*
X135623000Y-99873000D01*
X135623000Y-98723750D01*
X135877000Y-98723750D01*
X135877000Y-99873000D01*
X137226250Y-99873000D01*
X137385000Y-99714250D01*
X137385000Y-99073690D01*
X137288327Y-98840301D01*
X137109698Y-98661673D01*
X136876309Y-98565000D01*
X136035750Y-98565000D01*
X135877000Y-98723750D01*
X135623000Y-98723750D01*
X135464250Y-98565000D01*
X134623691Y-98565000D01*
X134390302Y-98661673D01*
X134211673Y-98840301D01*
X134115000Y-99073690D01*
X91710000Y-99073690D01*
X91710000Y-80709550D01*
X105713000Y-80709550D01*
X105713000Y-81648660D01*
X105809673Y-81882049D01*
X105988302Y-82060677D01*
X106221691Y-82157350D01*
X106824250Y-82157350D01*
X106983000Y-81998600D01*
X106983000Y-80550800D01*
X105871750Y-80550800D01*
X105713000Y-80709550D01*
X91710000Y-80709550D01*
X91710000Y-79198940D01*
X105713000Y-79198940D01*
X105713000Y-80138050D01*
X105871750Y-80296800D01*
X106983000Y-80296800D01*
X106983000Y-78849000D01*
X107237000Y-78849000D01*
X107237000Y-80296800D01*
X107257000Y-80296800D01*
X107257000Y-80550800D01*
X107237000Y-80550800D01*
X107237000Y-81998600D01*
X107395750Y-82157350D01*
X107998309Y-82157350D01*
X108231698Y-82060677D01*
X108410327Y-81882049D01*
X108507000Y-81648660D01*
X108507000Y-81549909D01*
X108515000Y-81561882D01*
X108515000Y-91150000D01*
X108601397Y-91584346D01*
X108829890Y-91926310D01*
X108847434Y-91952566D01*
X113197434Y-96302566D01*
X113565654Y-96548603D01*
X114000000Y-96635000D01*
X138529868Y-96635000D01*
X140447428Y-98552560D01*
X138750000Y-98552560D01*
X138514683Y-98596838D01*
X138298559Y-98735910D01*
X138153569Y-98948110D01*
X138102560Y-99200000D01*
X138102560Y-100800000D01*
X138146838Y-101035317D01*
X138285910Y-101251441D01*
X138498110Y-101396431D01*
X138750000Y-101447440D01*
X139005000Y-101447440D01*
X139005000Y-102111859D01*
X138983880Y-102125971D01*
X138870000Y-102296405D01*
X138756120Y-102125971D01*
X138225687Y-101771548D01*
X137600000Y-101647091D01*
X136974313Y-101771548D01*
X136443880Y-102125971D01*
X136330000Y-102296405D01*
X136216120Y-102125971D01*
X135685687Y-101771548D01*
X135060000Y-101647091D01*
X134434313Y-101771548D01*
X133903880Y-102125971D01*
X133790000Y-102296405D01*
X133676120Y-102125971D01*
X133145687Y-101771548D01*
X132520000Y-101647091D01*
X131894313Y-101771548D01*
X131363880Y-102125971D01*
X131250000Y-102296405D01*
X131136120Y-102125971D01*
X130605687Y-101771548D01*
X129980000Y-101647091D01*
X129354313Y-101771548D01*
X128823880Y-102125971D01*
X128710000Y-102296405D01*
X128596120Y-102125971D01*
X128065687Y-101771548D01*
X127440000Y-101647091D01*
X126814313Y-101771548D01*
X126283880Y-102125971D01*
X126170000Y-102296405D01*
X126056120Y-102125971D01*
X125525687Y-101771548D01*
X124900000Y-101647091D01*
X124274313Y-101771548D01*
X123743880Y-102125971D01*
X123630000Y-102296405D01*
X123516120Y-102125971D01*
X122985687Y-101771548D01*
X122360000Y-101647091D01*
X121734313Y-101771548D01*
X121203880Y-102125971D01*
X121090000Y-102296405D01*
X120976120Y-102125971D01*
X120445687Y-101771548D01*
X119820000Y-101647091D01*
X119194313Y-101771548D01*
X118663880Y-102125971D01*
X118550000Y-102296405D01*
X118436120Y-102125971D01*
X117905687Y-101771548D01*
X117280000Y-101647091D01*
X116654313Y-101771548D01*
X116123880Y-102125971D01*
X116010000Y-102296405D01*
X115896120Y-102125971D01*
X115365687Y-101771548D01*
X114740000Y-101647091D01*
X114114313Y-101771548D01*
X113583880Y-102125971D01*
X113549354Y-102177643D01*
X113451490Y-102025559D01*
X113239290Y-101880569D01*
X112987400Y-101829560D01*
X111412600Y-101829560D01*
X111177283Y-101873838D01*
X110961159Y-102012910D01*
X110816169Y-102225110D01*
X110765160Y-102477000D01*
X110765160Y-104763000D01*
X110809438Y-104998317D01*
X110948510Y-105214441D01*
X111160710Y-105359431D01*
X111412600Y-105410440D01*
X112987400Y-105410440D01*
X113222717Y-105366162D01*
X113438841Y-105227090D01*
X113550365Y-105063870D01*
X113583880Y-105114029D01*
X114114313Y-105468452D01*
X114740000Y-105592909D01*
X115365687Y-105468452D01*
X115896120Y-105114029D01*
X116010000Y-104943595D01*
X116123880Y-105114029D01*
X116654313Y-105468452D01*
X117280000Y-105592909D01*
X117905687Y-105468452D01*
X118436120Y-105114029D01*
X118550000Y-104943595D01*
X118663880Y-105114029D01*
X119194313Y-105468452D01*
X119820000Y-105592909D01*
X120445687Y-105468452D01*
X120976120Y-105114029D01*
X121090000Y-104943595D01*
X121203880Y-105114029D01*
X121734313Y-105468452D01*
X122360000Y-105592909D01*
X122985687Y-105468452D01*
X123516120Y-105114029D01*
X123630000Y-104943595D01*
X123743880Y-105114029D01*
X124274313Y-105468452D01*
X124900000Y-105592909D01*
X125525687Y-105468452D01*
X126056120Y-105114029D01*
X126170000Y-104943595D01*
X126283880Y-105114029D01*
X126814313Y-105468452D01*
X127440000Y-105592909D01*
X128065687Y-105468452D01*
X128596120Y-105114029D01*
X128710000Y-104943595D01*
X128823880Y-105114029D01*
X129354313Y-105468452D01*
X129980000Y-105592909D01*
X130605687Y-105468452D01*
X131136120Y-105114029D01*
X131250000Y-104943595D01*
X131363880Y-105114029D01*
X131894313Y-105468452D01*
X132520000Y-105592909D01*
X133145687Y-105468452D01*
X133676120Y-105114029D01*
X133790000Y-104943595D01*
X133903880Y-105114029D01*
X134434313Y-105468452D01*
X135060000Y-105592909D01*
X135685687Y-105468452D01*
X136216120Y-105114029D01*
X136330000Y-104943595D01*
X136443880Y-105114029D01*
X136974313Y-105468452D01*
X137600000Y-105592909D01*
X138225687Y-105468452D01*
X138756120Y-105114029D01*
X138870000Y-104943595D01*
X138983880Y-105114029D01*
X139514313Y-105468452D01*
X140140000Y-105592909D01*
X140765687Y-105468452D01*
X141296120Y-105114029D01*
X141410000Y-104943595D01*
X141523880Y-105114029D01*
X142054313Y-105468452D01*
X142680000Y-105592909D01*
X143305687Y-105468452D01*
X143836120Y-105114029D01*
X143963219Y-104923812D01*
X144153683Y-105165922D01*
X144711645Y-105479144D01*
X144839566Y-105510124D01*
X145093000Y-105390777D01*
X145093000Y-103747000D01*
X145073000Y-103747000D01*
X145073000Y-103493000D01*
X145093000Y-103493000D01*
X145093000Y-103473000D01*
X145347000Y-103473000D01*
X145347000Y-103493000D01*
X145367000Y-103493000D01*
X145367000Y-103747000D01*
X145347000Y-103747000D01*
X145347000Y-105390777D01*
X145600434Y-105510124D01*
X145728355Y-105479144D01*
X146286317Y-105165922D01*
X146476781Y-104923812D01*
X146603880Y-105114029D01*
X147134313Y-105468452D01*
X147760000Y-105592909D01*
X148385687Y-105468452D01*
X148916120Y-105114029D01*
X149270543Y-104583596D01*
X149395000Y-103957909D01*
X149395000Y-103282091D01*
X149270543Y-102656404D01*
X148916120Y-102125971D01*
X148782622Y-102036771D01*
X148766679Y-102012910D01*
X148562566Y-101707433D01*
X147052566Y-100197434D01*
X146757085Y-100000000D01*
X146684346Y-99951397D01*
X146250000Y-99865000D01*
X145720132Y-99865000D01*
X145546115Y-99690983D01*
X145725441Y-99575590D01*
X145870431Y-99363390D01*
X145921440Y-99111500D01*
X145921440Y-97460500D01*
X145877162Y-97225183D01*
X145738090Y-97009059D01*
X145525890Y-96864069D01*
X145274000Y-96813060D01*
X142226000Y-96813060D01*
X141990683Y-96857338D01*
X141973516Y-96868384D01*
X141390882Y-96285750D01*
X146417000Y-96285750D01*
X146417000Y-99174309D01*
X146513673Y-99407698D01*
X146692301Y-99586327D01*
X146925690Y-99683000D01*
X149814250Y-99683000D01*
X149973000Y-99524250D01*
X149973000Y-96127000D01*
X150227000Y-96127000D01*
X150227000Y-99524250D01*
X150385750Y-99683000D01*
X153274310Y-99683000D01*
X153507699Y-99586327D01*
X153686327Y-99407698D01*
X153736839Y-99285750D01*
X155065000Y-99285750D01*
X155065000Y-100126309D01*
X155161673Y-100359698D01*
X155340301Y-100538327D01*
X155573690Y-100635000D01*
X156214250Y-100635000D01*
X156373000Y-100476250D01*
X156373000Y-99127000D01*
X156627000Y-99127000D01*
X156627000Y-100476250D01*
X156785750Y-100635000D01*
X157426310Y-100635000D01*
X157659699Y-100538327D01*
X157838327Y-100359698D01*
X157935000Y-100126309D01*
X157935000Y-99285750D01*
X157776250Y-99127000D01*
X156627000Y-99127000D01*
X156373000Y-99127000D01*
X155223750Y-99127000D01*
X155065000Y-99285750D01*
X153736839Y-99285750D01*
X153783000Y-99174309D01*
X153783000Y-97873691D01*
X155065000Y-97873691D01*
X155065000Y-98714250D01*
X155223750Y-98873000D01*
X156373000Y-98873000D01*
X156373000Y-97523750D01*
X156627000Y-97523750D01*
X156627000Y-98873000D01*
X157776250Y-98873000D01*
X157935000Y-98714250D01*
X157935000Y-97873691D01*
X157838327Y-97640302D01*
X157659699Y-97461673D01*
X157426310Y-97365000D01*
X156785750Y-97365000D01*
X156627000Y-97523750D01*
X156373000Y-97523750D01*
X156214250Y-97365000D01*
X155573690Y-97365000D01*
X155340301Y-97461673D01*
X155161673Y-97640302D01*
X155065000Y-97873691D01*
X153783000Y-97873691D01*
X153783000Y-96285750D01*
X153624250Y-96127000D01*
X150227000Y-96127000D01*
X149973000Y-96127000D01*
X146575750Y-96127000D01*
X146417000Y-96285750D01*
X141390882Y-96285750D01*
X139802566Y-94697434D01*
X139696120Y-94626309D01*
X139434346Y-94451397D01*
X139000000Y-94365000D01*
X114470132Y-94365000D01*
X111390882Y-91285750D01*
X137115000Y-91285750D01*
X137115000Y-91926310D01*
X137211673Y-92159699D01*
X137390302Y-92338327D01*
X137623691Y-92435000D01*
X138464250Y-92435000D01*
X138623000Y-92276250D01*
X138623000Y-91127000D01*
X138877000Y-91127000D01*
X138877000Y-92276250D01*
X139035750Y-92435000D01*
X139876309Y-92435000D01*
X140109698Y-92338327D01*
X140288327Y-92159699D01*
X140385000Y-91926310D01*
X140385000Y-91285750D01*
X140226250Y-91127000D01*
X138877000Y-91127000D01*
X138623000Y-91127000D01*
X137273750Y-91127000D01*
X137115000Y-91285750D01*
X111390882Y-91285750D01*
X110785000Y-90679868D01*
X110785000Y-89486587D01*
X111043880Y-89874029D01*
X111574313Y-90228452D01*
X112200000Y-90352909D01*
X112825687Y-90228452D01*
X113356120Y-89874029D01*
X113470000Y-89703595D01*
X113583880Y-89874029D01*
X114114313Y-90228452D01*
X114740000Y-90352909D01*
X115365687Y-90228452D01*
X115896120Y-89874029D01*
X116010000Y-89703595D01*
X116123880Y-89874029D01*
X116654313Y-90228452D01*
X117280000Y-90352909D01*
X117905687Y-90228452D01*
X118436120Y-89874029D01*
X118550000Y-89703595D01*
X118663880Y-89874029D01*
X119194313Y-90228452D01*
X119820000Y-90352909D01*
X120445687Y-90228452D01*
X120976120Y-89874029D01*
X121090000Y-89703595D01*
X121203880Y-89874029D01*
X121734313Y-90228452D01*
X122360000Y-90352909D01*
X122985687Y-90228452D01*
X123516120Y-89874029D01*
X123630000Y-89703595D01*
X123743880Y-89874029D01*
X124274313Y-90228452D01*
X124900000Y-90352909D01*
X125525687Y-90228452D01*
X126056120Y-89874029D01*
X126170000Y-89703595D01*
X126283880Y-89874029D01*
X126814313Y-90228452D01*
X127440000Y-90352909D01*
X128065687Y-90228452D01*
X128596120Y-89874029D01*
X128710000Y-89703595D01*
X128823880Y-89874029D01*
X129354313Y-90228452D01*
X129980000Y-90352909D01*
X130605687Y-90228452D01*
X131136120Y-89874029D01*
X131250000Y-89703595D01*
X131363880Y-89874029D01*
X131894313Y-90228452D01*
X132520000Y-90352909D01*
X133145687Y-90228452D01*
X133676120Y-89874029D01*
X133790000Y-89703595D01*
X133903880Y-89874029D01*
X134434313Y-90228452D01*
X135060000Y-90352909D01*
X135685687Y-90228452D01*
X136216120Y-89874029D01*
X136330000Y-89703595D01*
X136443880Y-89874029D01*
X136974313Y-90228452D01*
X137115000Y-90256436D01*
X137115000Y-90714250D01*
X137273750Y-90873000D01*
X138623000Y-90873000D01*
X138623000Y-90853000D01*
X138877000Y-90853000D01*
X138877000Y-90873000D01*
X140226250Y-90873000D01*
X140385000Y-90714250D01*
X140385000Y-90206345D01*
X140520434Y-90270124D01*
X140648355Y-90239144D01*
X141151873Y-89956485D01*
X141102560Y-90200000D01*
X141102560Y-91800000D01*
X141146838Y-92035317D01*
X141285910Y-92251441D01*
X141498110Y-92396431D01*
X141615000Y-92420102D01*
X141615000Y-92708554D01*
X141578560Y-92888500D01*
X141578560Y-94539500D01*
X141622838Y-94774817D01*
X141761910Y-94990941D01*
X141974110Y-95135931D01*
X142226000Y-95186940D01*
X145274000Y-95186940D01*
X145509317Y-95142662D01*
X145725441Y-95003590D01*
X145870431Y-94791390D01*
X145921440Y-94539500D01*
X145921440Y-92888500D01*
X145909622Y-92825691D01*
X146417000Y-92825691D01*
X146417000Y-95714250D01*
X146575750Y-95873000D01*
X149973000Y-95873000D01*
X149973000Y-92475750D01*
X150227000Y-92475750D01*
X150227000Y-95873000D01*
X153624250Y-95873000D01*
X153783000Y-95714250D01*
X153783000Y-94000000D01*
X155052560Y-94000000D01*
X155052560Y-96000000D01*
X155096838Y-96235317D01*
X155235910Y-96451441D01*
X155448110Y-96596431D01*
X155700000Y-96647440D01*
X157300000Y-96647440D01*
X157535317Y-96603162D01*
X157751441Y-96464090D01*
X157805481Y-96385000D01*
X158062463Y-96385000D01*
X158088381Y-96515299D01*
X158410208Y-96996948D01*
X158891857Y-97318775D01*
X159460000Y-97431786D01*
X160028143Y-97318775D01*
X160509792Y-96996948D01*
X160730000Y-96667383D01*
X160950208Y-96996948D01*
X161431857Y-97318775D01*
X162000000Y-97431786D01*
X162568143Y-97318775D01*
X163049792Y-96996948D01*
X163270000Y-96667383D01*
X163490208Y-96996948D01*
X163971857Y-97318775D01*
X164540000Y-97431786D01*
X165108143Y-97318775D01*
X165246993Y-97225998D01*
X165355654Y-97298603D01*
X165790000Y-97385000D01*
X168865000Y-97385000D01*
X168865000Y-98621614D01*
X168778569Y-98748110D01*
X168727560Y-99000000D01*
X168727560Y-100500000D01*
X168771838Y-100735317D01*
X168910910Y-100951441D01*
X168980711Y-100999134D01*
X168923559Y-101035910D01*
X168778569Y-101248110D01*
X168727560Y-101500000D01*
X168727560Y-103000000D01*
X168771838Y-103235317D01*
X168831239Y-103327628D01*
X167647440Y-104511427D01*
X167647440Y-103264000D01*
X167603162Y-103028683D01*
X167464090Y-102812559D01*
X167251890Y-102667569D01*
X167000000Y-102616560D01*
X157000000Y-102616560D01*
X156764683Y-102660838D01*
X156548559Y-102799910D01*
X156403569Y-103012110D01*
X156352560Y-103264000D01*
X156352560Y-115264000D01*
X156396838Y-115499317D01*
X156535910Y-115715441D01*
X156748110Y-115860431D01*
X157000000Y-115911440D01*
X167000000Y-115911440D01*
X167235317Y-115867162D01*
X167451441Y-115728090D01*
X167596431Y-115515890D01*
X167647440Y-115264000D01*
X167647440Y-114736793D01*
X182159913Y-114736793D01*
X182734181Y-116150246D01*
X182763657Y-116194360D01*
X183259090Y-116561305D01*
X185820395Y-114000000D01*
X186179605Y-114000000D01*
X188740910Y-116561305D01*
X189236343Y-116194360D01*
X189829736Y-114788829D01*
X189840087Y-113263207D01*
X189265819Y-111849754D01*
X189236343Y-111805640D01*
X188740910Y-111438695D01*
X186179605Y-114000000D01*
X185820395Y-114000000D01*
X183259090Y-111438695D01*
X182763657Y-111805640D01*
X182170264Y-113211171D01*
X182159913Y-114736793D01*
X167647440Y-114736793D01*
X167647440Y-112285750D01*
X168565000Y-112285750D01*
X168565000Y-113126309D01*
X168661673Y-113359698D01*
X168840301Y-113538327D01*
X169073690Y-113635000D01*
X169714250Y-113635000D01*
X169873000Y-113476250D01*
X169873000Y-112127000D01*
X170127000Y-112127000D01*
X170127000Y-113476250D01*
X170285750Y-113635000D01*
X170926310Y-113635000D01*
X171159699Y-113538327D01*
X171338327Y-113359698D01*
X171435000Y-113126309D01*
X171435000Y-112285750D01*
X171276250Y-112127000D01*
X170127000Y-112127000D01*
X169873000Y-112127000D01*
X168723750Y-112127000D01*
X168565000Y-112285750D01*
X167647440Y-112285750D01*
X167647440Y-110873691D01*
X168565000Y-110873691D01*
X168565000Y-111714250D01*
X168723750Y-111873000D01*
X169873000Y-111873000D01*
X169873000Y-110523750D01*
X170127000Y-110523750D01*
X170127000Y-111873000D01*
X171276250Y-111873000D01*
X171435000Y-111714250D01*
X171435000Y-111259090D01*
X183438695Y-111259090D01*
X186000000Y-113820395D01*
X188561305Y-111259090D01*
X188194360Y-110763657D01*
X186788829Y-110170264D01*
X185263207Y-110159913D01*
X183849754Y-110734181D01*
X183805640Y-110763657D01*
X183438695Y-111259090D01*
X171435000Y-111259090D01*
X171435000Y-110873691D01*
X171338327Y-110640302D01*
X171159699Y-110461673D01*
X170926310Y-110365000D01*
X170285750Y-110365000D01*
X170127000Y-110523750D01*
X169873000Y-110523750D01*
X169714250Y-110365000D01*
X169073690Y-110365000D01*
X168840301Y-110461673D01*
X168661673Y-110640302D01*
X168565000Y-110873691D01*
X167647440Y-110873691D01*
X167647440Y-109385000D01*
X168693156Y-109385000D01*
X168735910Y-109451441D01*
X168948110Y-109596431D01*
X169200000Y-109647440D01*
X170800000Y-109647440D01*
X171035317Y-109603162D01*
X171251441Y-109464090D01*
X171396431Y-109251890D01*
X171447440Y-109000000D01*
X171447440Y-107000000D01*
X171403162Y-106764683D01*
X171264090Y-106548559D01*
X171051890Y-106403569D01*
X170800000Y-106352560D01*
X169200000Y-106352560D01*
X168974059Y-106395074D01*
X170802566Y-104566567D01*
X171048603Y-104198346D01*
X171077246Y-104054346D01*
X171135000Y-103764000D01*
X171135000Y-103378386D01*
X171221431Y-103251890D01*
X171272440Y-103000000D01*
X171272440Y-101500000D01*
X171228162Y-101264683D01*
X171089090Y-101048559D01*
X171019289Y-101000866D01*
X171076441Y-100964090D01*
X171221431Y-100751890D01*
X171272440Y-100500000D01*
X171272440Y-99000000D01*
X171228162Y-98764683D01*
X171135000Y-98619905D01*
X171135000Y-97378386D01*
X171221431Y-97251890D01*
X171272440Y-97000000D01*
X171272440Y-95500000D01*
X171228162Y-95264683D01*
X171089090Y-95048559D01*
X171020994Y-95002031D01*
X171163327Y-94859698D01*
X171260000Y-94626309D01*
X171260000Y-94035750D01*
X171101250Y-93877000D01*
X170127000Y-93877000D01*
X170127000Y-93897000D01*
X169873000Y-93897000D01*
X169873000Y-93877000D01*
X168898750Y-93877000D01*
X168740000Y-94035750D01*
X168740000Y-94626309D01*
X168836673Y-94859698D01*
X168977910Y-95000936D01*
X168923559Y-95035910D01*
X168869519Y-95115000D01*
X166260132Y-95115000D01*
X166024630Y-94879498D01*
X166024630Y-94052844D01*
X165911619Y-93484701D01*
X165589792Y-93003052D01*
X165396190Y-92873691D01*
X168740000Y-92873691D01*
X168740000Y-93464250D01*
X168898750Y-93623000D01*
X169873000Y-93623000D01*
X169873000Y-92523750D01*
X170127000Y-92523750D01*
X170127000Y-93623000D01*
X171101250Y-93623000D01*
X171260000Y-93464250D01*
X171260000Y-92873691D01*
X171163327Y-92640302D01*
X170984699Y-92461673D01*
X170751310Y-92365000D01*
X170285750Y-92365000D01*
X170127000Y-92523750D01*
X169873000Y-92523750D01*
X169714250Y-92365000D01*
X169248690Y-92365000D01*
X169015301Y-92461673D01*
X168836673Y-92640302D01*
X168740000Y-92873691D01*
X165396190Y-92873691D01*
X165108143Y-92681225D01*
X164540000Y-92568214D01*
X163971857Y-92681225D01*
X163490208Y-93003052D01*
X163270000Y-93332617D01*
X163049792Y-93003052D01*
X162568143Y-92681225D01*
X162000000Y-92568214D01*
X161431857Y-92681225D01*
X160950208Y-93003052D01*
X160845000Y-93160507D01*
X160845000Y-91613686D01*
X162660626Y-89798060D01*
X165050040Y-89798060D01*
X165285357Y-89753782D01*
X165501481Y-89614710D01*
X165646471Y-89402510D01*
X165697480Y-89150620D01*
X165697480Y-86849380D01*
X166302520Y-86849380D01*
X166302520Y-89150620D01*
X166346798Y-89385937D01*
X166485870Y-89602061D01*
X166698070Y-89747051D01*
X166949960Y-89798060D01*
X170450080Y-89798060D01*
X170685397Y-89753782D01*
X170901521Y-89614710D01*
X171046511Y-89402510D01*
X171097520Y-89150620D01*
X171097520Y-86849380D01*
X171053242Y-86614063D01*
X170914170Y-86397939D01*
X170701970Y-86252949D01*
X170450080Y-86201940D01*
X170345000Y-86201940D01*
X170345000Y-82423116D01*
X170373691Y-82435000D01*
X171214250Y-82435000D01*
X171373000Y-82276250D01*
X171373000Y-80627000D01*
X171627000Y-80627000D01*
X171627000Y-82276250D01*
X171785750Y-82435000D01*
X172626309Y-82435000D01*
X172859698Y-82338327D01*
X173038327Y-82159699D01*
X173135000Y-81926310D01*
X173135000Y-80785750D01*
X172976250Y-80627000D01*
X171627000Y-80627000D01*
X171373000Y-80627000D01*
X171353000Y-80627000D01*
X171353000Y-80373000D01*
X171373000Y-80373000D01*
X171373000Y-78723750D01*
X171627000Y-78723750D01*
X171627000Y-80373000D01*
X172976250Y-80373000D01*
X173135000Y-80214250D01*
X173135000Y-79073690D01*
X173038327Y-78840301D01*
X172859698Y-78661673D01*
X172626309Y-78565000D01*
X171785750Y-78565000D01*
X171627000Y-78723750D01*
X171373000Y-78723750D01*
X171214250Y-78565000D01*
X170373691Y-78565000D01*
X170140302Y-78661673D01*
X169961673Y-78840301D01*
X169941406Y-78889231D01*
X169585687Y-78651548D01*
X168960000Y-78527091D01*
X168334313Y-78651548D01*
X167803880Y-79005971D01*
X167449457Y-79536404D01*
X167325000Y-80162091D01*
X167325000Y-80837909D01*
X167449457Y-81463596D01*
X167575000Y-81651485D01*
X167575000Y-86201940D01*
X166949960Y-86201940D01*
X166714643Y-86246218D01*
X166498519Y-86385290D01*
X166353529Y-86597490D01*
X166302520Y-86849380D01*
X165697480Y-86849380D01*
X165653202Y-86614063D01*
X165514130Y-86397939D01*
X165301930Y-86252949D01*
X165050040Y-86201940D01*
X161549920Y-86201940D01*
X161314603Y-86246218D01*
X161098479Y-86385290D01*
X160953489Y-86597490D01*
X160902480Y-86849380D01*
X160902480Y-87638834D01*
X158480657Y-90060657D01*
X158180427Y-90509983D01*
X158075000Y-91040000D01*
X158075000Y-93551972D01*
X158062463Y-93615000D01*
X157806844Y-93615000D01*
X157764090Y-93548559D01*
X157551890Y-93403569D01*
X157300000Y-93352560D01*
X155700000Y-93352560D01*
X155464683Y-93396838D01*
X155248559Y-93535910D01*
X155103569Y-93748110D01*
X155052560Y-94000000D01*
X153783000Y-94000000D01*
X153783000Y-92825691D01*
X153686327Y-92592302D01*
X153507699Y-92413673D01*
X153274310Y-92317000D01*
X150385750Y-92317000D01*
X150227000Y-92475750D01*
X149973000Y-92475750D01*
X149814250Y-92317000D01*
X146925690Y-92317000D01*
X146692301Y-92413673D01*
X146513673Y-92592302D01*
X146417000Y-92825691D01*
X145909622Y-92825691D01*
X145877162Y-92653183D01*
X145808560Y-92546572D01*
X146220132Y-92135000D01*
X149750000Y-92135000D01*
X150184346Y-92048603D01*
X150455579Y-91867371D01*
X150498110Y-91896431D01*
X150750000Y-91947440D01*
X152750000Y-91947440D01*
X152985317Y-91903162D01*
X153201441Y-91764090D01*
X153346431Y-91551890D01*
X153397440Y-91300000D01*
X153397440Y-90785750D01*
X154115000Y-90785750D01*
X154115000Y-91426310D01*
X154211673Y-91659699D01*
X154390302Y-91838327D01*
X154623691Y-91935000D01*
X155464250Y-91935000D01*
X155623000Y-91776250D01*
X155623000Y-90627000D01*
X155877000Y-90627000D01*
X155877000Y-91776250D01*
X156035750Y-91935000D01*
X156876309Y-91935000D01*
X157109698Y-91838327D01*
X157288327Y-91659699D01*
X157385000Y-91426310D01*
X157385000Y-90785750D01*
X157226250Y-90627000D01*
X155877000Y-90627000D01*
X155623000Y-90627000D01*
X154273750Y-90627000D01*
X154115000Y-90785750D01*
X153397440Y-90785750D01*
X153397440Y-89700000D01*
X153373674Y-89573690D01*
X154115000Y-89573690D01*
X154115000Y-90214250D01*
X154273750Y-90373000D01*
X155623000Y-90373000D01*
X155623000Y-89223750D01*
X155877000Y-89223750D01*
X155877000Y-90373000D01*
X157226250Y-90373000D01*
X157385000Y-90214250D01*
X157385000Y-89573690D01*
X157288327Y-89340301D01*
X157109698Y-89161673D01*
X156876309Y-89065000D01*
X156035750Y-89065000D01*
X155877000Y-89223750D01*
X155623000Y-89223750D01*
X155464250Y-89065000D01*
X154623691Y-89065000D01*
X154390302Y-89161673D01*
X154211673Y-89340301D01*
X154115000Y-89573690D01*
X153373674Y-89573690D01*
X153353162Y-89464683D01*
X153214090Y-89248559D01*
X153135000Y-89194519D01*
X153135000Y-83750000D01*
X153029573Y-83219983D01*
X152729343Y-82770657D01*
X149479343Y-79520657D01*
X149476383Y-79518679D01*
X149147440Y-79298887D01*
X149147440Y-79200000D01*
X149103162Y-78964683D01*
X148964090Y-78748559D01*
X148751890Y-78603569D01*
X148500000Y-78552560D01*
X146500000Y-78552560D01*
X146264683Y-78596838D01*
X146048559Y-78735910D01*
X145943049Y-78890329D01*
X145585687Y-78651548D01*
X144960000Y-78527091D01*
X144334313Y-78651548D01*
X143803880Y-79005971D01*
X143690000Y-79176405D01*
X143576120Y-79005971D01*
X143045687Y-78651548D01*
X142420000Y-78527091D01*
X141794313Y-78651548D01*
X141263880Y-79005971D01*
X141136781Y-79196188D01*
X140946317Y-78954078D01*
X140388355Y-78640856D01*
X140260434Y-78609876D01*
X140007000Y-78729223D01*
X140007000Y-80373000D01*
X140027000Y-80373000D01*
X140027000Y-80627000D01*
X140007000Y-80627000D01*
X140007000Y-82270777D01*
X140260434Y-82390124D01*
X140388355Y-82359144D01*
X140946317Y-82045922D01*
X141136781Y-81803812D01*
X141263880Y-81994029D01*
X141794313Y-82348452D01*
X142420000Y-82472909D01*
X143045687Y-82348452D01*
X143575000Y-81994777D01*
X143575000Y-86711497D01*
X143305687Y-86531548D01*
X142680000Y-86407091D01*
X142054313Y-86531548D01*
X141523880Y-86885971D01*
X141396781Y-87076188D01*
X141206317Y-86834078D01*
X140648355Y-86520856D01*
X140520434Y-86489876D01*
X140267000Y-86609223D01*
X140267000Y-88253000D01*
X140287000Y-88253000D01*
X140287000Y-88507000D01*
X140267000Y-88507000D01*
X140267000Y-88527000D01*
X140013000Y-88527000D01*
X140013000Y-88507000D01*
X139993000Y-88507000D01*
X139993000Y-88253000D01*
X140013000Y-88253000D01*
X140013000Y-86609223D01*
X139759566Y-86489876D01*
X139631645Y-86520856D01*
X139073683Y-86834078D01*
X138883219Y-87076188D01*
X138756120Y-86885971D01*
X138225687Y-86531548D01*
X137600000Y-86407091D01*
X136974313Y-86531548D01*
X136443880Y-86885971D01*
X136330000Y-87056405D01*
X136216120Y-86885971D01*
X135685687Y-86531548D01*
X135060000Y-86407091D01*
X134434313Y-86531548D01*
X133903880Y-86885971D01*
X133790000Y-87056405D01*
X133676120Y-86885971D01*
X133145687Y-86531548D01*
X132520000Y-86407091D01*
X131894313Y-86531548D01*
X131363880Y-86885971D01*
X131250000Y-87056405D01*
X131136120Y-86885971D01*
X130605687Y-86531548D01*
X129980000Y-86407091D01*
X129354313Y-86531548D01*
X128823880Y-86885971D01*
X128710000Y-87056405D01*
X128596120Y-86885971D01*
X128065687Y-86531548D01*
X127440000Y-86407091D01*
X126814313Y-86531548D01*
X126283880Y-86885971D01*
X126170000Y-87056405D01*
X126056120Y-86885971D01*
X125525687Y-86531548D01*
X124900000Y-86407091D01*
X124274313Y-86531548D01*
X123743880Y-86885971D01*
X123630000Y-87056405D01*
X123516120Y-86885971D01*
X122985687Y-86531548D01*
X122360000Y-86407091D01*
X121734313Y-86531548D01*
X121203880Y-86885971D01*
X121090000Y-87056405D01*
X120976120Y-86885971D01*
X120445687Y-86531548D01*
X119820000Y-86407091D01*
X119194313Y-86531548D01*
X118663880Y-86885971D01*
X118550000Y-87056405D01*
X118436120Y-86885971D01*
X117905687Y-86531548D01*
X117280000Y-86407091D01*
X116654313Y-86531548D01*
X116123880Y-86885971D01*
X116010000Y-87056405D01*
X115896120Y-86885971D01*
X115819399Y-86834708D01*
X115851441Y-86814090D01*
X115996431Y-86601890D01*
X116047440Y-86350000D01*
X116047440Y-84850000D01*
X116003162Y-84614683D01*
X115864090Y-84398559D01*
X115651890Y-84253569D01*
X115638803Y-84250919D01*
X115851441Y-84114090D01*
X115996431Y-83901890D01*
X116047440Y-83650000D01*
X116047440Y-82150000D01*
X116003162Y-81914683D01*
X115864090Y-81698559D01*
X115802015Y-81656145D01*
X116000000Y-81359841D01*
X116282172Y-81782140D01*
X116735391Y-82084972D01*
X117270000Y-82191312D01*
X117804609Y-82084972D01*
X118257828Y-81782140D01*
X118540000Y-81359841D01*
X118822172Y-81782140D01*
X119275391Y-82084972D01*
X119810000Y-82191312D01*
X120344609Y-82084972D01*
X120797828Y-81782140D01*
X121080000Y-81359841D01*
X121362172Y-81782140D01*
X121815391Y-82084972D01*
X122350000Y-82191312D01*
X122884609Y-82084972D01*
X123337828Y-81782140D01*
X123620000Y-81359841D01*
X123902172Y-81782140D01*
X124355391Y-82084972D01*
X124890000Y-82191312D01*
X125424609Y-82084972D01*
X125877828Y-81782140D01*
X126180660Y-81328921D01*
X126287000Y-80794312D01*
X126287000Y-80627000D01*
X138245000Y-80627000D01*
X138245000Y-80927000D01*
X138418058Y-81543020D01*
X138813683Y-82045922D01*
X139371645Y-82359144D01*
X139499566Y-82390124D01*
X139753000Y-82270777D01*
X139753000Y-80627000D01*
X138245000Y-80627000D01*
X126287000Y-80627000D01*
X126287000Y-80073000D01*
X138245000Y-80073000D01*
X138245000Y-80373000D01*
X139753000Y-80373000D01*
X139753000Y-78729223D01*
X139499566Y-78609876D01*
X139371645Y-78640856D01*
X138813683Y-78954078D01*
X138418058Y-79456980D01*
X138245000Y-80073000D01*
X126287000Y-80073000D01*
X126287000Y-80053288D01*
X126180660Y-79518679D01*
X125877828Y-79065460D01*
X125424609Y-78762628D01*
X124890000Y-78656288D01*
X124355391Y-78762628D01*
X123902172Y-79065460D01*
X123620000Y-79487759D01*
X123337828Y-79065460D01*
X122884609Y-78762628D01*
X122350000Y-78656288D01*
X121815391Y-78762628D01*
X121362172Y-79065460D01*
X121080000Y-79487759D01*
X120797828Y-79065460D01*
X120344609Y-78762628D01*
X119810000Y-78656288D01*
X119275391Y-78762628D01*
X118822172Y-79065460D01*
X118540000Y-79487759D01*
X118257828Y-79065460D01*
X117804609Y-78762628D01*
X117270000Y-78656288D01*
X116735391Y-78762628D01*
X116282172Y-79065460D01*
X116000000Y-79487759D01*
X115717828Y-79065460D01*
X115264609Y-78762628D01*
X114730000Y-78656288D01*
X114195391Y-78762628D01*
X113742172Y-79065460D01*
X113460000Y-79487759D01*
X113177828Y-79065460D01*
X112724609Y-78762628D01*
X112190000Y-78656288D01*
X111655391Y-78762628D01*
X111202172Y-79065460D01*
X110920000Y-79487759D01*
X110637828Y-79065460D01*
X110184609Y-78762628D01*
X109650000Y-78656288D01*
X109115391Y-78762628D01*
X108662172Y-79065460D01*
X108507000Y-79297691D01*
X108507000Y-79198940D01*
X108410327Y-78965551D01*
X108231698Y-78786923D01*
X107998309Y-78690250D01*
X107395750Y-78690250D01*
X107237000Y-78849000D01*
X106983000Y-78849000D01*
X106824250Y-78690250D01*
X106221691Y-78690250D01*
X105988302Y-78786923D01*
X105809673Y-78965551D01*
X105713000Y-79198940D01*
X91710000Y-79198940D01*
X91710000Y-76740910D01*
X93438695Y-76740910D01*
X93805640Y-77236343D01*
X95211171Y-77829736D01*
X96736793Y-77840087D01*
X98150246Y-77265819D01*
X98194360Y-77236343D01*
X98561305Y-76740910D01*
X183438695Y-76740910D01*
X183805640Y-77236343D01*
X185211171Y-77829736D01*
X186736793Y-77840087D01*
X188150246Y-77265819D01*
X188194360Y-77236343D01*
X188561305Y-76740910D01*
X186000000Y-74179605D01*
X183438695Y-76740910D01*
X98561305Y-76740910D01*
X96000000Y-74179605D01*
X93438695Y-76740910D01*
X91710000Y-76740910D01*
X91710000Y-74736793D01*
X92159913Y-74736793D01*
X92734181Y-76150246D01*
X92763657Y-76194360D01*
X93259090Y-76561305D01*
X95820395Y-74000000D01*
X96179605Y-74000000D01*
X98740910Y-76561305D01*
X99236343Y-76194360D01*
X99829736Y-74788829D01*
X99830089Y-74736793D01*
X182159913Y-74736793D01*
X182734181Y-76150246D01*
X182763657Y-76194360D01*
X183259090Y-76561305D01*
X185820395Y-74000000D01*
X186179605Y-74000000D01*
X188740910Y-76561305D01*
X189236343Y-76194360D01*
X189829736Y-74788829D01*
X189840087Y-73263207D01*
X189265819Y-71849754D01*
X189236343Y-71805640D01*
X188740910Y-71438695D01*
X186179605Y-74000000D01*
X185820395Y-74000000D01*
X183259090Y-71438695D01*
X182763657Y-71805640D01*
X182170264Y-73211171D01*
X182159913Y-74736793D01*
X99830089Y-74736793D01*
X99840087Y-73263207D01*
X99265819Y-71849754D01*
X99236343Y-71805640D01*
X98740910Y-71438695D01*
X96179605Y-74000000D01*
X95820395Y-74000000D01*
X93259090Y-71438695D01*
X92763657Y-71805640D01*
X92170264Y-73211171D01*
X92159913Y-74736793D01*
X91710000Y-74736793D01*
X91710000Y-71259090D01*
X93438695Y-71259090D01*
X96000000Y-73820395D01*
X98561305Y-71259090D01*
X183438695Y-71259090D01*
X186000000Y-73820395D01*
X188561305Y-71259090D01*
X188194360Y-70763657D01*
X186788829Y-70170264D01*
X185263207Y-70159913D01*
X183849754Y-70734181D01*
X183805640Y-70763657D01*
X183438695Y-71259090D01*
X98561305Y-71259090D01*
X98194360Y-70763657D01*
X96788829Y-70170264D01*
X95263207Y-70159913D01*
X93849754Y-70734181D01*
X93805640Y-70763657D01*
X93438695Y-71259090D01*
X91710000Y-71259090D01*
X91710000Y-69710000D01*
X190290000Y-69710000D01*
X190290000Y-118290000D01*
X190290000Y-118290000D01*
G37*
X190290000Y-118290000D02*
X91710000Y-118290000D01*
X91710000Y-116740910D01*
X93438695Y-116740910D01*
X93805640Y-117236343D01*
X95211171Y-117829736D01*
X96736793Y-117840087D01*
X98150246Y-117265819D01*
X98194360Y-117236343D01*
X98561305Y-116740910D01*
X183438695Y-116740910D01*
X183805640Y-117236343D01*
X185211171Y-117829736D01*
X186736793Y-117840087D01*
X188150246Y-117265819D01*
X188194360Y-117236343D01*
X188561305Y-116740910D01*
X186000000Y-114179605D01*
X183438695Y-116740910D01*
X98561305Y-116740910D01*
X96000000Y-114179605D01*
X93438695Y-116740910D01*
X91710000Y-116740910D01*
X91710000Y-114736793D01*
X92159913Y-114736793D01*
X92734181Y-116150246D01*
X92763657Y-116194360D01*
X93259090Y-116561305D01*
X95820395Y-114000000D01*
X96179605Y-114000000D01*
X98740910Y-116561305D01*
X99236343Y-116194360D01*
X99829736Y-114788829D01*
X99840087Y-113263207D01*
X99265819Y-111849754D01*
X99236343Y-111805640D01*
X98740910Y-111438695D01*
X96179605Y-114000000D01*
X95820395Y-114000000D01*
X93259090Y-111438695D01*
X92763657Y-111805640D01*
X92170264Y-113211171D01*
X92159913Y-114736793D01*
X91710000Y-114736793D01*
X91710000Y-111259090D01*
X93438695Y-111259090D01*
X96000000Y-113820395D01*
X98561305Y-111259090D01*
X98194360Y-110763657D01*
X96788829Y-110170264D01*
X95263207Y-110159913D01*
X93849754Y-110734181D01*
X93805640Y-110763657D01*
X93438695Y-111259090D01*
X91710000Y-111259090D01*
X91710000Y-100285750D01*
X134115000Y-100285750D01*
X134115000Y-100926310D01*
X134211673Y-101159699D01*
X134390302Y-101338327D01*
X134623691Y-101435000D01*
X135464250Y-101435000D01*
X135623000Y-101276250D01*
X135623000Y-100127000D01*
X135877000Y-100127000D01*
X135877000Y-101276250D01*
X136035750Y-101435000D01*
X136876309Y-101435000D01*
X137109698Y-101338327D01*
X137288327Y-101159699D01*
X137385000Y-100926310D01*
X137385000Y-100285750D01*
X137226250Y-100127000D01*
X135877000Y-100127000D01*
X135623000Y-100127000D01*
X134273750Y-100127000D01*
X134115000Y-100285750D01*
X91710000Y-100285750D01*
X91710000Y-99073690D01*
X134115000Y-99073690D01*
X134115000Y-99714250D01*
X134273750Y-99873000D01*
X135623000Y-99873000D01*
X135623000Y-98723750D01*
X135877000Y-98723750D01*
X135877000Y-99873000D01*
X137226250Y-99873000D01*
X137385000Y-99714250D01*
X137385000Y-99073690D01*
X137288327Y-98840301D01*
X137109698Y-98661673D01*
X136876309Y-98565000D01*
X136035750Y-98565000D01*
X135877000Y-98723750D01*
X135623000Y-98723750D01*
X135464250Y-98565000D01*
X134623691Y-98565000D01*
X134390302Y-98661673D01*
X134211673Y-98840301D01*
X134115000Y-99073690D01*
X91710000Y-99073690D01*
X91710000Y-80709550D01*
X105713000Y-80709550D01*
X105713000Y-81648660D01*
X105809673Y-81882049D01*
X105988302Y-82060677D01*
X106221691Y-82157350D01*
X106824250Y-82157350D01*
X106983000Y-81998600D01*
X106983000Y-80550800D01*
X105871750Y-80550800D01*
X105713000Y-80709550D01*
X91710000Y-80709550D01*
X91710000Y-79198940D01*
X105713000Y-79198940D01*
X105713000Y-80138050D01*
X105871750Y-80296800D01*
X106983000Y-80296800D01*
X106983000Y-78849000D01*
X107237000Y-78849000D01*
X107237000Y-80296800D01*
X107257000Y-80296800D01*
X107257000Y-80550800D01*
X107237000Y-80550800D01*
X107237000Y-81998600D01*
X107395750Y-82157350D01*
X107998309Y-82157350D01*
X108231698Y-82060677D01*
X108410327Y-81882049D01*
X108507000Y-81648660D01*
X108507000Y-81549909D01*
X108515000Y-81561882D01*
X108515000Y-91150000D01*
X108601397Y-91584346D01*
X108829890Y-91926310D01*
X108847434Y-91952566D01*
X113197434Y-96302566D01*
X113565654Y-96548603D01*
X114000000Y-96635000D01*
X138529868Y-96635000D01*
X140447428Y-98552560D01*
X138750000Y-98552560D01*
X138514683Y-98596838D01*
X138298559Y-98735910D01*
X138153569Y-98948110D01*
X138102560Y-99200000D01*
X138102560Y-100800000D01*
X138146838Y-101035317D01*
X138285910Y-101251441D01*
X138498110Y-101396431D01*
X138750000Y-101447440D01*
X139005000Y-101447440D01*
X139005000Y-102111859D01*
X138983880Y-102125971D01*
X138870000Y-102296405D01*
X138756120Y-102125971D01*
X138225687Y-101771548D01*
X137600000Y-101647091D01*
X136974313Y-101771548D01*
X136443880Y-102125971D01*
X136330000Y-102296405D01*
X136216120Y-102125971D01*
X135685687Y-101771548D01*
X135060000Y-101647091D01*
X134434313Y-101771548D01*
X133903880Y-102125971D01*
X133790000Y-102296405D01*
X133676120Y-102125971D01*
X133145687Y-101771548D01*
X132520000Y-101647091D01*
X131894313Y-101771548D01*
X131363880Y-102125971D01*
X131250000Y-102296405D01*
X131136120Y-102125971D01*
X130605687Y-101771548D01*
X129980000Y-101647091D01*
X129354313Y-101771548D01*
X128823880Y-102125971D01*
X128710000Y-102296405D01*
X128596120Y-102125971D01*
X128065687Y-101771548D01*
X127440000Y-101647091D01*
X126814313Y-101771548D01*
X126283880Y-102125971D01*
X126170000Y-102296405D01*
X126056120Y-102125971D01*
X125525687Y-101771548D01*
X124900000Y-101647091D01*
X124274313Y-101771548D01*
X123743880Y-102125971D01*
X123630000Y-102296405D01*
X123516120Y-102125971D01*
X122985687Y-101771548D01*
X122360000Y-101647091D01*
X121734313Y-101771548D01*
X121203880Y-102125971D01*
X121090000Y-102296405D01*
X120976120Y-102125971D01*
X120445687Y-101771548D01*
X119820000Y-101647091D01*
X119194313Y-101771548D01*
X118663880Y-102125971D01*
X118550000Y-102296405D01*
X118436120Y-102125971D01*
X117905687Y-101771548D01*
X117280000Y-101647091D01*
X116654313Y-101771548D01*
X116123880Y-102125971D01*
X116010000Y-102296405D01*
X115896120Y-102125971D01*
X115365687Y-101771548D01*
X114740000Y-101647091D01*
X114114313Y-101771548D01*
X113583880Y-102125971D01*
X113549354Y-102177643D01*
X113451490Y-102025559D01*
X113239290Y-101880569D01*
X112987400Y-101829560D01*
X111412600Y-101829560D01*
X111177283Y-101873838D01*
X110961159Y-102012910D01*
X110816169Y-102225110D01*
X110765160Y-102477000D01*
X110765160Y-104763000D01*
X110809438Y-104998317D01*
X110948510Y-105214441D01*
X111160710Y-105359431D01*
X111412600Y-105410440D01*
X112987400Y-105410440D01*
X113222717Y-105366162D01*
X113438841Y-105227090D01*
X113550365Y-105063870D01*
X113583880Y-105114029D01*
X114114313Y-105468452D01*
X114740000Y-105592909D01*
X115365687Y-105468452D01*
X115896120Y-105114029D01*
X116010000Y-104943595D01*
X116123880Y-105114029D01*
X116654313Y-105468452D01*
X117280000Y-105592909D01*
X117905687Y-105468452D01*
X118436120Y-105114029D01*
X118550000Y-104943595D01*
X118663880Y-105114029D01*
X119194313Y-105468452D01*
X119820000Y-105592909D01*
X120445687Y-105468452D01*
X120976120Y-105114029D01*
X121090000Y-104943595D01*
X121203880Y-105114029D01*
X121734313Y-105468452D01*
X122360000Y-105592909D01*
X122985687Y-105468452D01*
X123516120Y-105114029D01*
X123630000Y-104943595D01*
X123743880Y-105114029D01*
X124274313Y-105468452D01*
X124900000Y-105592909D01*
X125525687Y-105468452D01*
X126056120Y-105114029D01*
X126170000Y-104943595D01*
X126283880Y-105114029D01*
X126814313Y-105468452D01*
X127440000Y-105592909D01*
X128065687Y-105468452D01*
X128596120Y-105114029D01*
X128710000Y-104943595D01*
X128823880Y-105114029D01*
X129354313Y-105468452D01*
X129980000Y-105592909D01*
X130605687Y-105468452D01*
X131136120Y-105114029D01*
X131250000Y-104943595D01*
X131363880Y-105114029D01*
X131894313Y-105468452D01*
X132520000Y-105592909D01*
X133145687Y-105468452D01*
X133676120Y-105114029D01*
X133790000Y-104943595D01*
X133903880Y-105114029D01*
X134434313Y-105468452D01*
X135060000Y-105592909D01*
X135685687Y-105468452D01*
X136216120Y-105114029D01*
X136330000Y-104943595D01*
X136443880Y-105114029D01*
X136974313Y-105468452D01*
X137600000Y-105592909D01*
X138225687Y-105468452D01*
X138756120Y-105114029D01*
X138870000Y-104943595D01*
X138983880Y-105114029D01*
X139514313Y-105468452D01*
X140140000Y-105592909D01*
X140765687Y-105468452D01*
X141296120Y-105114029D01*
X141410000Y-104943595D01*
X141523880Y-105114029D01*
X142054313Y-105468452D01*
X142680000Y-105592909D01*
X143305687Y-105468452D01*
X143836120Y-105114029D01*
X143963219Y-104923812D01*
X144153683Y-105165922D01*
X144711645Y-105479144D01*
X144839566Y-105510124D01*
X145093000Y-105390777D01*
X145093000Y-103747000D01*
X145073000Y-103747000D01*
X145073000Y-103493000D01*
X145093000Y-103493000D01*
X145093000Y-103473000D01*
X145347000Y-103473000D01*
X145347000Y-103493000D01*
X145367000Y-103493000D01*
X145367000Y-103747000D01*
X145347000Y-103747000D01*
X145347000Y-105390777D01*
X145600434Y-105510124D01*
X145728355Y-105479144D01*
X146286317Y-105165922D01*
X146476781Y-104923812D01*
X146603880Y-105114029D01*
X147134313Y-105468452D01*
X147760000Y-105592909D01*
X148385687Y-105468452D01*
X148916120Y-105114029D01*
X149270543Y-104583596D01*
X149395000Y-103957909D01*
X149395000Y-103282091D01*
X149270543Y-102656404D01*
X148916120Y-102125971D01*
X148782622Y-102036771D01*
X148766679Y-102012910D01*
X148562566Y-101707433D01*
X147052566Y-100197434D01*
X146757085Y-100000000D01*
X146684346Y-99951397D01*
X146250000Y-99865000D01*
X145720132Y-99865000D01*
X145546115Y-99690983D01*
X145725441Y-99575590D01*
X145870431Y-99363390D01*
X145921440Y-99111500D01*
X145921440Y-97460500D01*
X145877162Y-97225183D01*
X145738090Y-97009059D01*
X145525890Y-96864069D01*
X145274000Y-96813060D01*
X142226000Y-96813060D01*
X141990683Y-96857338D01*
X141973516Y-96868384D01*
X141390882Y-96285750D01*
X146417000Y-96285750D01*
X146417000Y-99174309D01*
X146513673Y-99407698D01*
X146692301Y-99586327D01*
X146925690Y-99683000D01*
X149814250Y-99683000D01*
X149973000Y-99524250D01*
X149973000Y-96127000D01*
X150227000Y-96127000D01*
X150227000Y-99524250D01*
X150385750Y-99683000D01*
X153274310Y-99683000D01*
X153507699Y-99586327D01*
X153686327Y-99407698D01*
X153736839Y-99285750D01*
X155065000Y-99285750D01*
X155065000Y-100126309D01*
X155161673Y-100359698D01*
X155340301Y-100538327D01*
X155573690Y-100635000D01*
X156214250Y-100635000D01*
X156373000Y-100476250D01*
X156373000Y-99127000D01*
X156627000Y-99127000D01*
X156627000Y-100476250D01*
X156785750Y-100635000D01*
X157426310Y-100635000D01*
X157659699Y-100538327D01*
X157838327Y-100359698D01*
X157935000Y-100126309D01*
X157935000Y-99285750D01*
X157776250Y-99127000D01*
X156627000Y-99127000D01*
X156373000Y-99127000D01*
X155223750Y-99127000D01*
X155065000Y-99285750D01*
X153736839Y-99285750D01*
X153783000Y-99174309D01*
X153783000Y-97873691D01*
X155065000Y-97873691D01*
X155065000Y-98714250D01*
X155223750Y-98873000D01*
X156373000Y-98873000D01*
X156373000Y-97523750D01*
X156627000Y-97523750D01*
X156627000Y-98873000D01*
X157776250Y-98873000D01*
X157935000Y-98714250D01*
X157935000Y-97873691D01*
X157838327Y-97640302D01*
X157659699Y-97461673D01*
X157426310Y-97365000D01*
X156785750Y-97365000D01*
X156627000Y-97523750D01*
X156373000Y-97523750D01*
X156214250Y-97365000D01*
X155573690Y-97365000D01*
X155340301Y-97461673D01*
X155161673Y-97640302D01*
X155065000Y-97873691D01*
X153783000Y-97873691D01*
X153783000Y-96285750D01*
X153624250Y-96127000D01*
X150227000Y-96127000D01*
X149973000Y-96127000D01*
X146575750Y-96127000D01*
X146417000Y-96285750D01*
X141390882Y-96285750D01*
X139802566Y-94697434D01*
X139696120Y-94626309D01*
X139434346Y-94451397D01*
X139000000Y-94365000D01*
X114470132Y-94365000D01*
X111390882Y-91285750D01*
X137115000Y-91285750D01*
X137115000Y-91926310D01*
X137211673Y-92159699D01*
X137390302Y-92338327D01*
X137623691Y-92435000D01*
X138464250Y-92435000D01*
X138623000Y-92276250D01*
X138623000Y-91127000D01*
X138877000Y-91127000D01*
X138877000Y-92276250D01*
X139035750Y-92435000D01*
X139876309Y-92435000D01*
X140109698Y-92338327D01*
X140288327Y-92159699D01*
X140385000Y-91926310D01*
X140385000Y-91285750D01*
X140226250Y-91127000D01*
X138877000Y-91127000D01*
X138623000Y-91127000D01*
X137273750Y-91127000D01*
X137115000Y-91285750D01*
X111390882Y-91285750D01*
X110785000Y-90679868D01*
X110785000Y-89486587D01*
X111043880Y-89874029D01*
X111574313Y-90228452D01*
X112200000Y-90352909D01*
X112825687Y-90228452D01*
X113356120Y-89874029D01*
X113470000Y-89703595D01*
X113583880Y-89874029D01*
X114114313Y-90228452D01*
X114740000Y-90352909D01*
X115365687Y-90228452D01*
X115896120Y-89874029D01*
X116010000Y-89703595D01*
X116123880Y-89874029D01*
X116654313Y-90228452D01*
X117280000Y-90352909D01*
X117905687Y-90228452D01*
X118436120Y-89874029D01*
X118550000Y-89703595D01*
X118663880Y-89874029D01*
X119194313Y-90228452D01*
X119820000Y-90352909D01*
X120445687Y-90228452D01*
X120976120Y-89874029D01*
X121090000Y-89703595D01*
X121203880Y-89874029D01*
X121734313Y-90228452D01*
X122360000Y-90352909D01*
X122985687Y-90228452D01*
X123516120Y-89874029D01*
X123630000Y-89703595D01*
X123743880Y-89874029D01*
X124274313Y-90228452D01*
X124900000Y-90352909D01*
X125525687Y-90228452D01*
X126056120Y-89874029D01*
X126170000Y-89703595D01*
X126283880Y-89874029D01*
X126814313Y-90228452D01*
X127440000Y-90352909D01*
X128065687Y-90228452D01*
X128596120Y-89874029D01*
X128710000Y-89703595D01*
X128823880Y-89874029D01*
X129354313Y-90228452D01*
X129980000Y-90352909D01*
X130605687Y-90228452D01*
X131136120Y-89874029D01*
X131250000Y-89703595D01*
X131363880Y-89874029D01*
X131894313Y-90228452D01*
X132520000Y-90352909D01*
X133145687Y-90228452D01*
X133676120Y-89874029D01*
X133790000Y-89703595D01*
X133903880Y-89874029D01*
X134434313Y-90228452D01*
X135060000Y-90352909D01*
X135685687Y-90228452D01*
X136216120Y-89874029D01*
X136330000Y-89703595D01*
X136443880Y-89874029D01*
X136974313Y-90228452D01*
X137115000Y-90256436D01*
X137115000Y-90714250D01*
X137273750Y-90873000D01*
X138623000Y-90873000D01*
X138623000Y-90853000D01*
X138877000Y-90853000D01*
X138877000Y-90873000D01*
X140226250Y-90873000D01*
X140385000Y-90714250D01*
X140385000Y-90206345D01*
X140520434Y-90270124D01*
X140648355Y-90239144D01*
X141151873Y-89956485D01*
X141102560Y-90200000D01*
X141102560Y-91800000D01*
X141146838Y-92035317D01*
X141285910Y-92251441D01*
X141498110Y-92396431D01*
X141615000Y-92420102D01*
X141615000Y-92708554D01*
X141578560Y-92888500D01*
X141578560Y-94539500D01*
X141622838Y-94774817D01*
X141761910Y-94990941D01*
X141974110Y-95135931D01*
X142226000Y-95186940D01*
X145274000Y-95186940D01*
X145509317Y-95142662D01*
X145725441Y-95003590D01*
X145870431Y-94791390D01*
X145921440Y-94539500D01*
X145921440Y-92888500D01*
X145909622Y-92825691D01*
X146417000Y-92825691D01*
X146417000Y-95714250D01*
X146575750Y-95873000D01*
X149973000Y-95873000D01*
X149973000Y-92475750D01*
X150227000Y-92475750D01*
X150227000Y-95873000D01*
X153624250Y-95873000D01*
X153783000Y-95714250D01*
X153783000Y-94000000D01*
X155052560Y-94000000D01*
X155052560Y-96000000D01*
X155096838Y-96235317D01*
X155235910Y-96451441D01*
X155448110Y-96596431D01*
X155700000Y-96647440D01*
X157300000Y-96647440D01*
X157535317Y-96603162D01*
X157751441Y-96464090D01*
X157805481Y-96385000D01*
X158062463Y-96385000D01*
X158088381Y-96515299D01*
X158410208Y-96996948D01*
X158891857Y-97318775D01*
X159460000Y-97431786D01*
X160028143Y-97318775D01*
X160509792Y-96996948D01*
X160730000Y-96667383D01*
X160950208Y-96996948D01*
X161431857Y-97318775D01*
X162000000Y-97431786D01*
X162568143Y-97318775D01*
X163049792Y-96996948D01*
X163270000Y-96667383D01*
X163490208Y-96996948D01*
X163971857Y-97318775D01*
X164540000Y-97431786D01*
X165108143Y-97318775D01*
X165246993Y-97225998D01*
X165355654Y-97298603D01*
X165790000Y-97385000D01*
X168865000Y-97385000D01*
X168865000Y-98621614D01*
X168778569Y-98748110D01*
X168727560Y-99000000D01*
X168727560Y-100500000D01*
X168771838Y-100735317D01*
X168910910Y-100951441D01*
X168980711Y-100999134D01*
X168923559Y-101035910D01*
X168778569Y-101248110D01*
X168727560Y-101500000D01*
X168727560Y-103000000D01*
X168771838Y-103235317D01*
X168831239Y-103327628D01*
X167647440Y-104511427D01*
X167647440Y-103264000D01*
X167603162Y-103028683D01*
X167464090Y-102812559D01*
X167251890Y-102667569D01*
X167000000Y-102616560D01*
X157000000Y-102616560D01*
X156764683Y-102660838D01*
X156548559Y-102799910D01*
X156403569Y-103012110D01*
X156352560Y-103264000D01*
X156352560Y-115264000D01*
X156396838Y-115499317D01*
X156535910Y-115715441D01*
X156748110Y-115860431D01*
X157000000Y-115911440D01*
X167000000Y-115911440D01*
X167235317Y-115867162D01*
X167451441Y-115728090D01*
X167596431Y-115515890D01*
X167647440Y-115264000D01*
X167647440Y-114736793D01*
X182159913Y-114736793D01*
X182734181Y-116150246D01*
X182763657Y-116194360D01*
X183259090Y-116561305D01*
X185820395Y-114000000D01*
X186179605Y-114000000D01*
X188740910Y-116561305D01*
X189236343Y-116194360D01*
X189829736Y-114788829D01*
X189840087Y-113263207D01*
X189265819Y-111849754D01*
X189236343Y-111805640D01*
X188740910Y-111438695D01*
X186179605Y-114000000D01*
X185820395Y-114000000D01*
X183259090Y-111438695D01*
X182763657Y-111805640D01*
X182170264Y-113211171D01*
X182159913Y-114736793D01*
X167647440Y-114736793D01*
X167647440Y-112285750D01*
X168565000Y-112285750D01*
X168565000Y-113126309D01*
X168661673Y-113359698D01*
X168840301Y-113538327D01*
X169073690Y-113635000D01*
X169714250Y-113635000D01*
X169873000Y-113476250D01*
X169873000Y-112127000D01*
X170127000Y-112127000D01*
X170127000Y-113476250D01*
X170285750Y-113635000D01*
X170926310Y-113635000D01*
X171159699Y-113538327D01*
X171338327Y-113359698D01*
X171435000Y-113126309D01*
X171435000Y-112285750D01*
X171276250Y-112127000D01*
X170127000Y-112127000D01*
X169873000Y-112127000D01*
X168723750Y-112127000D01*
X168565000Y-112285750D01*
X167647440Y-112285750D01*
X167647440Y-110873691D01*
X168565000Y-110873691D01*
X168565000Y-111714250D01*
X168723750Y-111873000D01*
X169873000Y-111873000D01*
X169873000Y-110523750D01*
X170127000Y-110523750D01*
X170127000Y-111873000D01*
X171276250Y-111873000D01*
X171435000Y-111714250D01*
X171435000Y-111259090D01*
X183438695Y-111259090D01*
X186000000Y-113820395D01*
X188561305Y-111259090D01*
X188194360Y-110763657D01*
X186788829Y-110170264D01*
X185263207Y-110159913D01*
X183849754Y-110734181D01*
X183805640Y-110763657D01*
X183438695Y-111259090D01*
X171435000Y-111259090D01*
X171435000Y-110873691D01*
X171338327Y-110640302D01*
X171159699Y-110461673D01*
X170926310Y-110365000D01*
X170285750Y-110365000D01*
X170127000Y-110523750D01*
X169873000Y-110523750D01*
X169714250Y-110365000D01*
X169073690Y-110365000D01*
X168840301Y-110461673D01*
X168661673Y-110640302D01*
X168565000Y-110873691D01*
X167647440Y-110873691D01*
X167647440Y-109385000D01*
X168693156Y-109385000D01*
X168735910Y-109451441D01*
X168948110Y-109596431D01*
X169200000Y-109647440D01*
X170800000Y-109647440D01*
X171035317Y-109603162D01*
X171251441Y-109464090D01*
X171396431Y-109251890D01*
X171447440Y-109000000D01*
X171447440Y-107000000D01*
X171403162Y-106764683D01*
X171264090Y-106548559D01*
X171051890Y-106403569D01*
X170800000Y-106352560D01*
X169200000Y-106352560D01*
X168974059Y-106395074D01*
X170802566Y-104566567D01*
X171048603Y-104198346D01*
X171077246Y-104054346D01*
X171135000Y-103764000D01*
X171135000Y-103378386D01*
X171221431Y-103251890D01*
X171272440Y-103000000D01*
X171272440Y-101500000D01*
X171228162Y-101264683D01*
X171089090Y-101048559D01*
X171019289Y-101000866D01*
X171076441Y-100964090D01*
X171221431Y-100751890D01*
X171272440Y-100500000D01*
X171272440Y-99000000D01*
X171228162Y-98764683D01*
X171135000Y-98619905D01*
X171135000Y-97378386D01*
X171221431Y-97251890D01*
X171272440Y-97000000D01*
X171272440Y-95500000D01*
X171228162Y-95264683D01*
X171089090Y-95048559D01*
X171020994Y-95002031D01*
X171163327Y-94859698D01*
X171260000Y-94626309D01*
X171260000Y-94035750D01*
X171101250Y-93877000D01*
X170127000Y-93877000D01*
X170127000Y-93897000D01*
X169873000Y-93897000D01*
X169873000Y-93877000D01*
X168898750Y-93877000D01*
X168740000Y-94035750D01*
X168740000Y-94626309D01*
X168836673Y-94859698D01*
X168977910Y-95000936D01*
X168923559Y-95035910D01*
X168869519Y-95115000D01*
X166260132Y-95115000D01*
X166024630Y-94879498D01*
X166024630Y-94052844D01*
X165911619Y-93484701D01*
X165589792Y-93003052D01*
X165396190Y-92873691D01*
X168740000Y-92873691D01*
X168740000Y-93464250D01*
X168898750Y-93623000D01*
X169873000Y-93623000D01*
X169873000Y-92523750D01*
X170127000Y-92523750D01*
X170127000Y-93623000D01*
X171101250Y-93623000D01*
X171260000Y-93464250D01*
X171260000Y-92873691D01*
X171163327Y-92640302D01*
X170984699Y-92461673D01*
X170751310Y-92365000D01*
X170285750Y-92365000D01*
X170127000Y-92523750D01*
X169873000Y-92523750D01*
X169714250Y-92365000D01*
X169248690Y-92365000D01*
X169015301Y-92461673D01*
X168836673Y-92640302D01*
X168740000Y-92873691D01*
X165396190Y-92873691D01*
X165108143Y-92681225D01*
X164540000Y-92568214D01*
X163971857Y-92681225D01*
X163490208Y-93003052D01*
X163270000Y-93332617D01*
X163049792Y-93003052D01*
X162568143Y-92681225D01*
X162000000Y-92568214D01*
X161431857Y-92681225D01*
X160950208Y-93003052D01*
X160845000Y-93160507D01*
X160845000Y-91613686D01*
X162660626Y-89798060D01*
X165050040Y-89798060D01*
X165285357Y-89753782D01*
X165501481Y-89614710D01*
X165646471Y-89402510D01*
X165697480Y-89150620D01*
X165697480Y-86849380D01*
X166302520Y-86849380D01*
X166302520Y-89150620D01*
X166346798Y-89385937D01*
X166485870Y-89602061D01*
X166698070Y-89747051D01*
X166949960Y-89798060D01*
X170450080Y-89798060D01*
X170685397Y-89753782D01*
X170901521Y-89614710D01*
X171046511Y-89402510D01*
X171097520Y-89150620D01*
X171097520Y-86849380D01*
X171053242Y-86614063D01*
X170914170Y-86397939D01*
X170701970Y-86252949D01*
X170450080Y-86201940D01*
X170345000Y-86201940D01*
X170345000Y-82423116D01*
X170373691Y-82435000D01*
X171214250Y-82435000D01*
X171373000Y-82276250D01*
X171373000Y-80627000D01*
X171627000Y-80627000D01*
X171627000Y-82276250D01*
X171785750Y-82435000D01*
X172626309Y-82435000D01*
X172859698Y-82338327D01*
X173038327Y-82159699D01*
X173135000Y-81926310D01*
X173135000Y-80785750D01*
X172976250Y-80627000D01*
X171627000Y-80627000D01*
X171373000Y-80627000D01*
X171353000Y-80627000D01*
X171353000Y-80373000D01*
X171373000Y-80373000D01*
X171373000Y-78723750D01*
X171627000Y-78723750D01*
X171627000Y-80373000D01*
X172976250Y-80373000D01*
X173135000Y-80214250D01*
X173135000Y-79073690D01*
X173038327Y-78840301D01*
X172859698Y-78661673D01*
X172626309Y-78565000D01*
X171785750Y-78565000D01*
X171627000Y-78723750D01*
X171373000Y-78723750D01*
X171214250Y-78565000D01*
X170373691Y-78565000D01*
X170140302Y-78661673D01*
X169961673Y-78840301D01*
X169941406Y-78889231D01*
X169585687Y-78651548D01*
X168960000Y-78527091D01*
X168334313Y-78651548D01*
X167803880Y-79005971D01*
X167449457Y-79536404D01*
X167325000Y-80162091D01*
X167325000Y-80837909D01*
X167449457Y-81463596D01*
X167575000Y-81651485D01*
X167575000Y-86201940D01*
X166949960Y-86201940D01*
X166714643Y-86246218D01*
X166498519Y-86385290D01*
X166353529Y-86597490D01*
X166302520Y-86849380D01*
X165697480Y-86849380D01*
X165653202Y-86614063D01*
X165514130Y-86397939D01*
X165301930Y-86252949D01*
X165050040Y-86201940D01*
X161549920Y-86201940D01*
X161314603Y-86246218D01*
X161098479Y-86385290D01*
X160953489Y-86597490D01*
X160902480Y-86849380D01*
X160902480Y-87638834D01*
X158480657Y-90060657D01*
X158180427Y-90509983D01*
X158075000Y-91040000D01*
X158075000Y-93551972D01*
X158062463Y-93615000D01*
X157806844Y-93615000D01*
X157764090Y-93548559D01*
X157551890Y-93403569D01*
X157300000Y-93352560D01*
X155700000Y-93352560D01*
X155464683Y-93396838D01*
X155248559Y-93535910D01*
X155103569Y-93748110D01*
X155052560Y-94000000D01*
X153783000Y-94000000D01*
X153783000Y-92825691D01*
X153686327Y-92592302D01*
X153507699Y-92413673D01*
X153274310Y-92317000D01*
X150385750Y-92317000D01*
X150227000Y-92475750D01*
X149973000Y-92475750D01*
X149814250Y-92317000D01*
X146925690Y-92317000D01*
X146692301Y-92413673D01*
X146513673Y-92592302D01*
X146417000Y-92825691D01*
X145909622Y-92825691D01*
X145877162Y-92653183D01*
X145808560Y-92546572D01*
X146220132Y-92135000D01*
X149750000Y-92135000D01*
X150184346Y-92048603D01*
X150455579Y-91867371D01*
X150498110Y-91896431D01*
X150750000Y-91947440D01*
X152750000Y-91947440D01*
X152985317Y-91903162D01*
X153201441Y-91764090D01*
X153346431Y-91551890D01*
X153397440Y-91300000D01*
X153397440Y-90785750D01*
X154115000Y-90785750D01*
X154115000Y-91426310D01*
X154211673Y-91659699D01*
X154390302Y-91838327D01*
X154623691Y-91935000D01*
X155464250Y-91935000D01*
X155623000Y-91776250D01*
X155623000Y-90627000D01*
X155877000Y-90627000D01*
X155877000Y-91776250D01*
X156035750Y-91935000D01*
X156876309Y-91935000D01*
X157109698Y-91838327D01*
X157288327Y-91659699D01*
X157385000Y-91426310D01*
X157385000Y-90785750D01*
X157226250Y-90627000D01*
X155877000Y-90627000D01*
X155623000Y-90627000D01*
X154273750Y-90627000D01*
X154115000Y-90785750D01*
X153397440Y-90785750D01*
X153397440Y-89700000D01*
X153373674Y-89573690D01*
X154115000Y-89573690D01*
X154115000Y-90214250D01*
X154273750Y-90373000D01*
X155623000Y-90373000D01*
X155623000Y-89223750D01*
X155877000Y-89223750D01*
X155877000Y-90373000D01*
X157226250Y-90373000D01*
X157385000Y-90214250D01*
X157385000Y-89573690D01*
X157288327Y-89340301D01*
X157109698Y-89161673D01*
X156876309Y-89065000D01*
X156035750Y-89065000D01*
X155877000Y-89223750D01*
X155623000Y-89223750D01*
X155464250Y-89065000D01*
X154623691Y-89065000D01*
X154390302Y-89161673D01*
X154211673Y-89340301D01*
X154115000Y-89573690D01*
X153373674Y-89573690D01*
X153353162Y-89464683D01*
X153214090Y-89248559D01*
X153135000Y-89194519D01*
X153135000Y-83750000D01*
X153029573Y-83219983D01*
X152729343Y-82770657D01*
X149479343Y-79520657D01*
X149476383Y-79518679D01*
X149147440Y-79298887D01*
X149147440Y-79200000D01*
X149103162Y-78964683D01*
X148964090Y-78748559D01*
X148751890Y-78603569D01*
X148500000Y-78552560D01*
X146500000Y-78552560D01*
X146264683Y-78596838D01*
X146048559Y-78735910D01*
X145943049Y-78890329D01*
X145585687Y-78651548D01*
X144960000Y-78527091D01*
X144334313Y-78651548D01*
X143803880Y-79005971D01*
X143690000Y-79176405D01*
X143576120Y-79005971D01*
X143045687Y-78651548D01*
X142420000Y-78527091D01*
X141794313Y-78651548D01*
X141263880Y-79005971D01*
X141136781Y-79196188D01*
X140946317Y-78954078D01*
X140388355Y-78640856D01*
X140260434Y-78609876D01*
X140007000Y-78729223D01*
X140007000Y-80373000D01*
X140027000Y-80373000D01*
X140027000Y-80627000D01*
X140007000Y-80627000D01*
X140007000Y-82270777D01*
X140260434Y-82390124D01*
X140388355Y-82359144D01*
X140946317Y-82045922D01*
X141136781Y-81803812D01*
X141263880Y-81994029D01*
X141794313Y-82348452D01*
X142420000Y-82472909D01*
X143045687Y-82348452D01*
X143575000Y-81994777D01*
X143575000Y-86711497D01*
X143305687Y-86531548D01*
X142680000Y-86407091D01*
X142054313Y-86531548D01*
X141523880Y-86885971D01*
X141396781Y-87076188D01*
X141206317Y-86834078D01*
X140648355Y-86520856D01*
X140520434Y-86489876D01*
X140267000Y-86609223D01*
X140267000Y-88253000D01*
X140287000Y-88253000D01*
X140287000Y-88507000D01*
X140267000Y-88507000D01*
X140267000Y-88527000D01*
X140013000Y-88527000D01*
X140013000Y-88507000D01*
X139993000Y-88507000D01*
X139993000Y-88253000D01*
X140013000Y-88253000D01*
X140013000Y-86609223D01*
X139759566Y-86489876D01*
X139631645Y-86520856D01*
X139073683Y-86834078D01*
X138883219Y-87076188D01*
X138756120Y-86885971D01*
X138225687Y-86531548D01*
X137600000Y-86407091D01*
X136974313Y-86531548D01*
X136443880Y-86885971D01*
X136330000Y-87056405D01*
X136216120Y-86885971D01*
X135685687Y-86531548D01*
X135060000Y-86407091D01*
X134434313Y-86531548D01*
X133903880Y-86885971D01*
X133790000Y-87056405D01*
X133676120Y-86885971D01*
X133145687Y-86531548D01*
X132520000Y-86407091D01*
X131894313Y-86531548D01*
X131363880Y-86885971D01*
X131250000Y-87056405D01*
X131136120Y-86885971D01*
X130605687Y-86531548D01*
X129980000Y-86407091D01*
X129354313Y-86531548D01*
X128823880Y-86885971D01*
X128710000Y-87056405D01*
X128596120Y-86885971D01*
X128065687Y-86531548D01*
X127440000Y-86407091D01*
X126814313Y-86531548D01*
X126283880Y-86885971D01*
X126170000Y-87056405D01*
X126056120Y-86885971D01*
X125525687Y-86531548D01*
X124900000Y-86407091D01*
X124274313Y-86531548D01*
X123743880Y-86885971D01*
X123630000Y-87056405D01*
X123516120Y-86885971D01*
X122985687Y-86531548D01*
X122360000Y-86407091D01*
X121734313Y-86531548D01*
X121203880Y-86885971D01*
X121090000Y-87056405D01*
X120976120Y-86885971D01*
X120445687Y-86531548D01*
X119820000Y-86407091D01*
X119194313Y-86531548D01*
X118663880Y-86885971D01*
X118550000Y-87056405D01*
X118436120Y-86885971D01*
X117905687Y-86531548D01*
X117280000Y-86407091D01*
X116654313Y-86531548D01*
X116123880Y-86885971D01*
X116010000Y-87056405D01*
X115896120Y-86885971D01*
X115819399Y-86834708D01*
X115851441Y-86814090D01*
X115996431Y-86601890D01*
X116047440Y-86350000D01*
X116047440Y-84850000D01*
X116003162Y-84614683D01*
X115864090Y-84398559D01*
X115651890Y-84253569D01*
X115638803Y-84250919D01*
X115851441Y-84114090D01*
X115996431Y-83901890D01*
X116047440Y-83650000D01*
X116047440Y-82150000D01*
X116003162Y-81914683D01*
X115864090Y-81698559D01*
X115802015Y-81656145D01*
X116000000Y-81359841D01*
X116282172Y-81782140D01*
X116735391Y-82084972D01*
X117270000Y-82191312D01*
X117804609Y-82084972D01*
X118257828Y-81782140D01*
X118540000Y-81359841D01*
X118822172Y-81782140D01*
X119275391Y-82084972D01*
X119810000Y-82191312D01*
X120344609Y-82084972D01*
X120797828Y-81782140D01*
X121080000Y-81359841D01*
X121362172Y-81782140D01*
X121815391Y-82084972D01*
X122350000Y-82191312D01*
X122884609Y-82084972D01*
X123337828Y-81782140D01*
X123620000Y-81359841D01*
X123902172Y-81782140D01*
X124355391Y-82084972D01*
X124890000Y-82191312D01*
X125424609Y-82084972D01*
X125877828Y-81782140D01*
X126180660Y-81328921D01*
X126287000Y-80794312D01*
X126287000Y-80627000D01*
X138245000Y-80627000D01*
X138245000Y-80927000D01*
X138418058Y-81543020D01*
X138813683Y-82045922D01*
X139371645Y-82359144D01*
X139499566Y-82390124D01*
X139753000Y-82270777D01*
X139753000Y-80627000D01*
X138245000Y-80627000D01*
X126287000Y-80627000D01*
X126287000Y-80073000D01*
X138245000Y-80073000D01*
X138245000Y-80373000D01*
X139753000Y-80373000D01*
X139753000Y-78729223D01*
X139499566Y-78609876D01*
X139371645Y-78640856D01*
X138813683Y-78954078D01*
X138418058Y-79456980D01*
X138245000Y-80073000D01*
X126287000Y-80073000D01*
X126287000Y-80053288D01*
X126180660Y-79518679D01*
X125877828Y-79065460D01*
X125424609Y-78762628D01*
X124890000Y-78656288D01*
X124355391Y-78762628D01*
X123902172Y-79065460D01*
X123620000Y-79487759D01*
X123337828Y-79065460D01*
X122884609Y-78762628D01*
X122350000Y-78656288D01*
X121815391Y-78762628D01*
X121362172Y-79065460D01*
X121080000Y-79487759D01*
X120797828Y-79065460D01*
X120344609Y-78762628D01*
X119810000Y-78656288D01*
X119275391Y-78762628D01*
X118822172Y-79065460D01*
X118540000Y-79487759D01*
X118257828Y-79065460D01*
X117804609Y-78762628D01*
X117270000Y-78656288D01*
X116735391Y-78762628D01*
X116282172Y-79065460D01*
X116000000Y-79487759D01*
X115717828Y-79065460D01*
X115264609Y-78762628D01*
X114730000Y-78656288D01*
X114195391Y-78762628D01*
X113742172Y-79065460D01*
X113460000Y-79487759D01*
X113177828Y-79065460D01*
X112724609Y-78762628D01*
X112190000Y-78656288D01*
X111655391Y-78762628D01*
X111202172Y-79065460D01*
X110920000Y-79487759D01*
X110637828Y-79065460D01*
X110184609Y-78762628D01*
X109650000Y-78656288D01*
X109115391Y-78762628D01*
X108662172Y-79065460D01*
X108507000Y-79297691D01*
X108507000Y-79198940D01*
X108410327Y-78965551D01*
X108231698Y-78786923D01*
X107998309Y-78690250D01*
X107395750Y-78690250D01*
X107237000Y-78849000D01*
X106983000Y-78849000D01*
X106824250Y-78690250D01*
X106221691Y-78690250D01*
X105988302Y-78786923D01*
X105809673Y-78965551D01*
X105713000Y-79198940D01*
X91710000Y-79198940D01*
X91710000Y-76740910D01*
X93438695Y-76740910D01*
X93805640Y-77236343D01*
X95211171Y-77829736D01*
X96736793Y-77840087D01*
X98150246Y-77265819D01*
X98194360Y-77236343D01*
X98561305Y-76740910D01*
X183438695Y-76740910D01*
X183805640Y-77236343D01*
X185211171Y-77829736D01*
X186736793Y-77840087D01*
X188150246Y-77265819D01*
X188194360Y-77236343D01*
X188561305Y-76740910D01*
X186000000Y-74179605D01*
X183438695Y-76740910D01*
X98561305Y-76740910D01*
X96000000Y-74179605D01*
X93438695Y-76740910D01*
X91710000Y-76740910D01*
X91710000Y-74736793D01*
X92159913Y-74736793D01*
X92734181Y-76150246D01*
X92763657Y-76194360D01*
X93259090Y-76561305D01*
X95820395Y-74000000D01*
X96179605Y-74000000D01*
X98740910Y-76561305D01*
X99236343Y-76194360D01*
X99829736Y-74788829D01*
X99830089Y-74736793D01*
X182159913Y-74736793D01*
X182734181Y-76150246D01*
X182763657Y-76194360D01*
X183259090Y-76561305D01*
X185820395Y-74000000D01*
X186179605Y-74000000D01*
X188740910Y-76561305D01*
X189236343Y-76194360D01*
X189829736Y-74788829D01*
X189840087Y-73263207D01*
X189265819Y-71849754D01*
X189236343Y-71805640D01*
X188740910Y-71438695D01*
X186179605Y-74000000D01*
X185820395Y-74000000D01*
X183259090Y-71438695D01*
X182763657Y-71805640D01*
X182170264Y-73211171D01*
X182159913Y-74736793D01*
X99830089Y-74736793D01*
X99840087Y-73263207D01*
X99265819Y-71849754D01*
X99236343Y-71805640D01*
X98740910Y-71438695D01*
X96179605Y-74000000D01*
X95820395Y-74000000D01*
X93259090Y-71438695D01*
X92763657Y-71805640D01*
X92170264Y-73211171D01*
X92159913Y-74736793D01*
X91710000Y-74736793D01*
X91710000Y-71259090D01*
X93438695Y-71259090D01*
X96000000Y-73820395D01*
X98561305Y-71259090D01*
X183438695Y-71259090D01*
X186000000Y-73820395D01*
X188561305Y-71259090D01*
X188194360Y-70763657D01*
X186788829Y-70170264D01*
X185263207Y-70159913D01*
X183849754Y-70734181D01*
X183805640Y-70763657D01*
X183438695Y-71259090D01*
X98561305Y-71259090D01*
X98194360Y-70763657D01*
X96788829Y-70170264D01*
X95263207Y-70159913D01*
X93849754Y-70734181D01*
X93805640Y-70763657D01*
X93438695Y-71259090D01*
X91710000Y-71259090D01*
X91710000Y-69710000D01*
X190290000Y-69710000D01*
X190290000Y-118290000D01*
M02*
