G04 #@! TF.FileFunction,Soldermask,Top*
%FSLAX46Y46*%
G04 Gerber Fmt 4.6, Leading zero omitted, Abs format (unit mm)*
G04 Created by KiCad (PCBNEW 4.0.6) date 07/16/17 12:25:55*
%MOMM*%
%LPD*%
G01*
G04 APERTURE LIST*
%ADD10C,0.100000*%
%ADD11O,2.099260X3.900120*%
%ADD12R,10.400000X12.400000*%
%ADD13R,1.974800X2.686000*%
%ADD14O,2.400000X3.000000*%
%ADD15R,5.400000X2.900000*%
%ADD16R,2.400000X3.000000*%
%ADD17C,6.800000*%
%ADD18O,1.924000X2.597100*%
%ADD19R,1.924000X2.597100*%
%ADD20C,0.254000*%
G04 APERTURE END LIST*
D10*
D11*
X162000000Y-95000000D03*
X164540000Y-95000000D03*
X159460000Y-95000000D03*
D12*
X162000000Y-109264000D03*
D13*
X112200000Y-103620000D03*
D14*
X114740000Y-103620000D03*
X117280000Y-103620000D03*
X119820000Y-103620000D03*
X122360000Y-103620000D03*
X124900000Y-103620000D03*
X127440000Y-103620000D03*
X129980000Y-103620000D03*
X132520000Y-103620000D03*
X135060000Y-103620000D03*
X137600000Y-103620000D03*
X140140000Y-103620000D03*
X142680000Y-103620000D03*
X145220000Y-103620000D03*
X147760000Y-103620000D03*
X147760000Y-88380000D03*
X145220000Y-88380000D03*
X142680000Y-88380000D03*
X140140000Y-88380000D03*
X137600000Y-88380000D03*
X135060000Y-88380000D03*
X132520000Y-88380000D03*
X129980000Y-88380000D03*
X127440000Y-88380000D03*
X124900000Y-88380000D03*
X122360000Y-88380000D03*
X119820000Y-88380000D03*
X117280000Y-88380000D03*
X114740000Y-88380000D03*
X112200000Y-88380000D03*
D15*
X151500000Y-110500000D03*
X145000000Y-110500000D03*
D16*
X171500000Y-80500000D03*
D14*
X168960000Y-80500000D03*
D16*
X147500000Y-80500000D03*
D14*
X144960000Y-80500000D03*
X142420000Y-80500000D03*
X139880000Y-80500000D03*
D17*
X96000000Y-114000000D03*
X186000000Y-74000000D03*
X186000000Y-114000000D03*
X96000000Y-74000000D03*
D18*
X122350000Y-80423800D03*
X117270000Y-80423800D03*
X114730000Y-80423800D03*
X112190000Y-80423800D03*
X124890000Y-80423800D03*
X119810000Y-80423800D03*
D19*
X107110000Y-80423800D03*
D18*
X109650000Y-80423800D03*
D20*
G36*
X190873000Y-118873000D02*
X91127000Y-118873000D01*
X91127000Y-71000000D01*
X92873000Y-71000000D01*
X92873000Y-117000000D01*
X92883006Y-117049410D01*
X92911447Y-117091035D01*
X92953841Y-117118315D01*
X93000000Y-117127000D01*
X189000000Y-117127000D01*
X189049410Y-117116994D01*
X189091035Y-117088553D01*
X189118315Y-117046159D01*
X189127000Y-117000000D01*
X189127000Y-71000000D01*
X189116994Y-70950590D01*
X189088553Y-70908965D01*
X189046159Y-70881685D01*
X189000000Y-70873000D01*
X93000000Y-70873000D01*
X92950590Y-70883006D01*
X92908965Y-70911447D01*
X92881685Y-70953841D01*
X92873000Y-71000000D01*
X91127000Y-71000000D01*
X91127000Y-69127000D01*
X190873000Y-69127000D01*
X190873000Y-118873000D01*
X190873000Y-118873000D01*
G37*
X190873000Y-118873000D02*
X91127000Y-118873000D01*
X91127000Y-71000000D01*
X92873000Y-71000000D01*
X92873000Y-117000000D01*
X92883006Y-117049410D01*
X92911447Y-117091035D01*
X92953841Y-117118315D01*
X93000000Y-117127000D01*
X189000000Y-117127000D01*
X189049410Y-117116994D01*
X189091035Y-117088553D01*
X189118315Y-117046159D01*
X189127000Y-117000000D01*
X189127000Y-71000000D01*
X189116994Y-70950590D01*
X189088553Y-70908965D01*
X189046159Y-70881685D01*
X189000000Y-70873000D01*
X93000000Y-70873000D01*
X92950590Y-70883006D01*
X92908965Y-70911447D01*
X92881685Y-70953841D01*
X92873000Y-71000000D01*
X91127000Y-71000000D01*
X91127000Y-69127000D01*
X190873000Y-69127000D01*
X190873000Y-118873000D01*
M02*
