G04 #@! TF.FileFunction,Legend,Top*
%FSLAX46Y46*%
G04 Gerber Fmt 4.6, Leading zero omitted, Abs format (unit mm)*
G04 Created by KiCad (PCBNEW 4.0.6) date 07/16/17 12:25:55*
%MOMM*%
%LPD*%
G01*
G04 APERTURE LIST*
%ADD10C,0.100000*%
%ADD11C,0.300000*%
%ADD12C,0.150000*%
%ADD13C,0.381000*%
%ADD14C,0.120000*%
%ADD15C,0.254000*%
%ADD16C,0.304800*%
G04 APERTURE END LIST*
D10*
D11*
X102607144Y-109403571D02*
X102107144Y-108689286D01*
X101750001Y-109403571D02*
X101750001Y-107903571D01*
X102321429Y-107903571D01*
X102464287Y-107975000D01*
X102535715Y-108046429D01*
X102607144Y-108189286D01*
X102607144Y-108403571D01*
X102535715Y-108546429D01*
X102464287Y-108617857D01*
X102321429Y-108689286D01*
X101750001Y-108689286D01*
X103750001Y-108617857D02*
X103250001Y-108617857D01*
X103250001Y-109403571D02*
X103250001Y-107903571D01*
X103964287Y-107903571D01*
X105678572Y-109403571D02*
X105678572Y-107903571D01*
X106250000Y-107903571D01*
X106392858Y-107975000D01*
X106464286Y-108046429D01*
X106535715Y-108189286D01*
X106535715Y-108403571D01*
X106464286Y-108546429D01*
X106392858Y-108617857D01*
X106250000Y-108689286D01*
X105678572Y-108689286D01*
X107464286Y-107903571D02*
X107750000Y-107903571D01*
X107892858Y-107975000D01*
X108035715Y-108117857D01*
X108107143Y-108403571D01*
X108107143Y-108903571D01*
X108035715Y-109189286D01*
X107892858Y-109332143D01*
X107750000Y-109403571D01*
X107464286Y-109403571D01*
X107321429Y-109332143D01*
X107178572Y-109189286D01*
X107107143Y-108903571D01*
X107107143Y-108403571D01*
X107178572Y-108117857D01*
X107321429Y-107975000D01*
X107464286Y-107903571D01*
X108607144Y-107903571D02*
X108964287Y-109403571D01*
X109250001Y-108332143D01*
X109535715Y-109403571D01*
X109892858Y-107903571D01*
X110464287Y-108617857D02*
X110964287Y-108617857D01*
X111178573Y-109403571D02*
X110464287Y-109403571D01*
X110464287Y-107903571D01*
X111178573Y-107903571D01*
X112678573Y-109403571D02*
X112178573Y-108689286D01*
X111821430Y-109403571D02*
X111821430Y-107903571D01*
X112392858Y-107903571D01*
X112535716Y-107975000D01*
X112607144Y-108046429D01*
X112678573Y-108189286D01*
X112678573Y-108403571D01*
X112607144Y-108546429D01*
X112535716Y-108617857D01*
X112392858Y-108689286D01*
X111821430Y-108689286D01*
X114464287Y-109403571D02*
X114464287Y-107903571D01*
X114964287Y-108975000D01*
X115464287Y-107903571D01*
X115464287Y-109403571D01*
X116178573Y-108617857D02*
X116678573Y-108617857D01*
X116892859Y-109403571D02*
X116178573Y-109403571D01*
X116178573Y-107903571D01*
X116892859Y-107903571D01*
X117321430Y-107903571D02*
X118178573Y-107903571D01*
X117750002Y-109403571D02*
X117750002Y-107903571D01*
X118678573Y-108617857D02*
X119178573Y-108617857D01*
X119392859Y-109403571D02*
X118678573Y-109403571D01*
X118678573Y-107903571D01*
X119392859Y-107903571D01*
X120892859Y-109403571D02*
X120392859Y-108689286D01*
X120035716Y-109403571D02*
X120035716Y-107903571D01*
X120607144Y-107903571D01*
X120750002Y-107975000D01*
X120821430Y-108046429D01*
X120892859Y-108189286D01*
X120892859Y-108403571D01*
X120821430Y-108546429D01*
X120750002Y-108617857D01*
X120607144Y-108689286D01*
X120035716Y-108689286D01*
X123178573Y-108617857D02*
X123392859Y-108689286D01*
X123464287Y-108760714D01*
X123535716Y-108903571D01*
X123535716Y-109117857D01*
X123464287Y-109260714D01*
X123392859Y-109332143D01*
X123250001Y-109403571D01*
X122678573Y-109403571D01*
X122678573Y-107903571D01*
X123178573Y-107903571D01*
X123321430Y-107975000D01*
X123392859Y-108046429D01*
X123464287Y-108189286D01*
X123464287Y-108332143D01*
X123392859Y-108475000D01*
X123321430Y-108546429D01*
X123178573Y-108617857D01*
X122678573Y-108617857D01*
X124464287Y-108689286D02*
X124464287Y-109403571D01*
X123964287Y-107903571D02*
X124464287Y-108689286D01*
X124964287Y-107903571D01*
X126607144Y-109403571D02*
X126607144Y-107903571D01*
X126964287Y-107903571D01*
X127178572Y-107975000D01*
X127321430Y-108117857D01*
X127392858Y-108260714D01*
X127464287Y-108546429D01*
X127464287Y-108760714D01*
X127392858Y-109046429D01*
X127321430Y-109189286D01*
X127178572Y-109332143D01*
X126964287Y-109403571D01*
X126607144Y-109403571D01*
X128821430Y-109403571D02*
X128107144Y-109403571D01*
X128107144Y-107903571D01*
X129250001Y-108046429D02*
X129321430Y-107975000D01*
X129464287Y-107903571D01*
X129821430Y-107903571D01*
X129964287Y-107975000D01*
X130035716Y-108046429D01*
X130107144Y-108189286D01*
X130107144Y-108332143D01*
X130035716Y-108546429D01*
X129178573Y-109403571D01*
X130107144Y-109403571D01*
X130678572Y-109332143D02*
X130892858Y-109403571D01*
X131250001Y-109403571D01*
X131392858Y-109332143D01*
X131464287Y-109260714D01*
X131535715Y-109117857D01*
X131535715Y-108975000D01*
X131464287Y-108832143D01*
X131392858Y-108760714D01*
X131250001Y-108689286D01*
X130964287Y-108617857D01*
X130821429Y-108546429D01*
X130750001Y-108475000D01*
X130678572Y-108332143D01*
X130678572Y-108189286D01*
X130750001Y-108046429D01*
X130821429Y-107975000D01*
X130964287Y-107903571D01*
X131321429Y-107903571D01*
X131535715Y-107975000D01*
X132678572Y-108617857D02*
X132892858Y-108689286D01*
X132964286Y-108760714D01*
X133035715Y-108903571D01*
X133035715Y-109117857D01*
X132964286Y-109260714D01*
X132892858Y-109332143D01*
X132750000Y-109403571D01*
X132178572Y-109403571D01*
X132178572Y-107903571D01*
X132678572Y-107903571D01*
X132821429Y-107975000D01*
X132892858Y-108046429D01*
X132964286Y-108189286D01*
X132964286Y-108332143D01*
X132892858Y-108475000D01*
X132821429Y-108546429D01*
X132678572Y-108617857D01*
X132178572Y-108617857D01*
X133607143Y-108975000D02*
X134321429Y-108975000D01*
X133464286Y-109403571D02*
X133964286Y-107903571D01*
X134464286Y-109403571D01*
X104285713Y-111953571D02*
X104285713Y-110453571D01*
X104928570Y-111953571D02*
X104928570Y-111167857D01*
X104857141Y-111025000D01*
X104714284Y-110953571D01*
X104499999Y-110953571D01*
X104357141Y-111025000D01*
X104285713Y-111096429D01*
X105428570Y-110953571D02*
X105999999Y-110953571D01*
X105642856Y-110453571D02*
X105642856Y-111739286D01*
X105714284Y-111882143D01*
X105857142Y-111953571D01*
X105999999Y-111953571D01*
X106285713Y-110953571D02*
X106857142Y-110953571D01*
X106499999Y-110453571D02*
X106499999Y-111739286D01*
X106571427Y-111882143D01*
X106714285Y-111953571D01*
X106857142Y-111953571D01*
X107357142Y-110953571D02*
X107357142Y-112453571D01*
X107357142Y-111025000D02*
X107499999Y-110953571D01*
X107785713Y-110953571D01*
X107928570Y-111025000D01*
X107999999Y-111096429D01*
X108071428Y-111239286D01*
X108071428Y-111667857D01*
X107999999Y-111810714D01*
X107928570Y-111882143D01*
X107785713Y-111953571D01*
X107499999Y-111953571D01*
X107357142Y-111882143D01*
X108714285Y-111810714D02*
X108785713Y-111882143D01*
X108714285Y-111953571D01*
X108642856Y-111882143D01*
X108714285Y-111810714D01*
X108714285Y-111953571D01*
X108714285Y-111025000D02*
X108785713Y-111096429D01*
X108714285Y-111167857D01*
X108642856Y-111096429D01*
X108714285Y-111025000D01*
X108714285Y-111167857D01*
X110499999Y-110382143D02*
X109214285Y-112310714D01*
X112071428Y-110382143D02*
X110785714Y-112310714D01*
X112428572Y-110953571D02*
X112714286Y-111953571D01*
X113000000Y-111239286D01*
X113285715Y-111953571D01*
X113571429Y-110953571D01*
X114000001Y-110953571D02*
X114285715Y-111953571D01*
X114571429Y-111239286D01*
X114857144Y-111953571D01*
X115142858Y-110953571D01*
X115571430Y-110953571D02*
X115857144Y-111953571D01*
X116142858Y-111239286D01*
X116428573Y-111953571D01*
X116714287Y-110953571D01*
X117285716Y-111810714D02*
X117357144Y-111882143D01*
X117285716Y-111953571D01*
X117214287Y-111882143D01*
X117285716Y-111810714D01*
X117285716Y-111953571D01*
X118642859Y-111953571D02*
X118642859Y-110453571D01*
X118642859Y-111882143D02*
X118500002Y-111953571D01*
X118214288Y-111953571D01*
X118071430Y-111882143D01*
X118000002Y-111810714D01*
X117928573Y-111667857D01*
X117928573Y-111239286D01*
X118000002Y-111096429D01*
X118071430Y-111025000D01*
X118214288Y-110953571D01*
X118500002Y-110953571D01*
X118642859Y-111025000D01*
X119571431Y-111953571D02*
X119428573Y-111882143D01*
X119357145Y-111739286D01*
X119357145Y-110453571D01*
X120071430Y-110596429D02*
X120142859Y-110525000D01*
X120285716Y-110453571D01*
X120642859Y-110453571D01*
X120785716Y-110525000D01*
X120857145Y-110596429D01*
X120928573Y-110739286D01*
X120928573Y-110882143D01*
X120857145Y-111096429D01*
X120000002Y-111953571D01*
X120928573Y-111953571D01*
X121500001Y-111882143D02*
X121642858Y-111953571D01*
X121928573Y-111953571D01*
X122071430Y-111882143D01*
X122142858Y-111739286D01*
X122142858Y-111667857D01*
X122071430Y-111525000D01*
X121928573Y-111453571D01*
X121714287Y-111453571D01*
X121571430Y-111382143D01*
X121500001Y-111239286D01*
X121500001Y-111167857D01*
X121571430Y-111025000D01*
X121714287Y-110953571D01*
X121928573Y-110953571D01*
X122071430Y-111025000D01*
X122785716Y-111953571D02*
X122785716Y-110453571D01*
X122785716Y-111025000D02*
X122928573Y-110953571D01*
X123214287Y-110953571D01*
X123357144Y-111025000D01*
X123428573Y-111096429D01*
X123500002Y-111239286D01*
X123500002Y-111667857D01*
X123428573Y-111810714D01*
X123357144Y-111882143D01*
X123214287Y-111953571D01*
X122928573Y-111953571D01*
X122785716Y-111882143D01*
X124785716Y-111953571D02*
X124785716Y-111167857D01*
X124714287Y-111025000D01*
X124571430Y-110953571D01*
X124285716Y-110953571D01*
X124142859Y-111025000D01*
X124785716Y-111882143D02*
X124642859Y-111953571D01*
X124285716Y-111953571D01*
X124142859Y-111882143D01*
X124071430Y-111739286D01*
X124071430Y-111596429D01*
X124142859Y-111453571D01*
X124285716Y-111382143D01*
X124642859Y-111382143D01*
X124785716Y-111310714D01*
X125500002Y-111810714D02*
X125571430Y-111882143D01*
X125500002Y-111953571D01*
X125428573Y-111882143D01*
X125500002Y-111810714D01*
X125500002Y-111953571D01*
X126857145Y-111882143D02*
X126714288Y-111953571D01*
X126428574Y-111953571D01*
X126285716Y-111882143D01*
X126214288Y-111810714D01*
X126142859Y-111667857D01*
X126142859Y-111239286D01*
X126214288Y-111096429D01*
X126285716Y-111025000D01*
X126428574Y-110953571D01*
X126714288Y-110953571D01*
X126857145Y-111025000D01*
X127714288Y-111953571D02*
X127571430Y-111882143D01*
X127500002Y-111810714D01*
X127428573Y-111667857D01*
X127428573Y-111239286D01*
X127500002Y-111096429D01*
X127571430Y-111025000D01*
X127714288Y-110953571D01*
X127928573Y-110953571D01*
X128071430Y-111025000D01*
X128142859Y-111096429D01*
X128214288Y-111239286D01*
X128214288Y-111667857D01*
X128142859Y-111810714D01*
X128071430Y-111882143D01*
X127928573Y-111953571D01*
X127714288Y-111953571D01*
X128857145Y-111953571D02*
X128857145Y-110953571D01*
X128857145Y-111096429D02*
X128928573Y-111025000D01*
X129071431Y-110953571D01*
X129285716Y-110953571D01*
X129428573Y-111025000D01*
X129500002Y-111167857D01*
X129500002Y-111953571D01*
X129500002Y-111167857D02*
X129571431Y-111025000D01*
X129714288Y-110953571D01*
X129928573Y-110953571D01*
X130071431Y-111025000D01*
X130142859Y-111167857D01*
X130142859Y-111953571D01*
X131928573Y-110382143D02*
X130642859Y-112310714D01*
X140321429Y-75678571D02*
X140321429Y-74178571D01*
X140678572Y-74178571D01*
X140892857Y-74250000D01*
X141035715Y-74392857D01*
X141107143Y-74535714D01*
X141178572Y-74821429D01*
X141178572Y-75035714D01*
X141107143Y-75321429D01*
X141035715Y-75464286D01*
X140892857Y-75607143D01*
X140678572Y-75678571D01*
X140321429Y-75678571D01*
X141821429Y-75678571D02*
X141821429Y-74678571D01*
X141821429Y-74178571D02*
X141750000Y-74250000D01*
X141821429Y-74321429D01*
X141892857Y-74250000D01*
X141821429Y-74178571D01*
X141821429Y-74321429D01*
X142464286Y-75607143D02*
X142607143Y-75678571D01*
X142892858Y-75678571D01*
X143035715Y-75607143D01*
X143107143Y-75464286D01*
X143107143Y-75392857D01*
X143035715Y-75250000D01*
X142892858Y-75178571D01*
X142678572Y-75178571D01*
X142535715Y-75107143D01*
X142464286Y-74964286D01*
X142464286Y-74892857D01*
X142535715Y-74750000D01*
X142678572Y-74678571D01*
X142892858Y-74678571D01*
X143035715Y-74750000D01*
X143750001Y-74678571D02*
X143750001Y-76178571D01*
X143750001Y-74750000D02*
X143892858Y-74678571D01*
X144178572Y-74678571D01*
X144321429Y-74750000D01*
X144392858Y-74821429D01*
X144464287Y-74964286D01*
X144464287Y-75392857D01*
X144392858Y-75535714D01*
X144321429Y-75607143D01*
X144178572Y-75678571D01*
X143892858Y-75678571D01*
X143750001Y-75607143D01*
X145321430Y-75678571D02*
X145178572Y-75607143D01*
X145107144Y-75464286D01*
X145107144Y-74178571D01*
X146535715Y-75678571D02*
X146535715Y-74892857D01*
X146464286Y-74750000D01*
X146321429Y-74678571D01*
X146035715Y-74678571D01*
X145892858Y-74750000D01*
X146535715Y-75607143D02*
X146392858Y-75678571D01*
X146035715Y-75678571D01*
X145892858Y-75607143D01*
X145821429Y-75464286D01*
X145821429Y-75321429D01*
X145892858Y-75178571D01*
X146035715Y-75107143D01*
X146392858Y-75107143D01*
X146535715Y-75035714D01*
X147107144Y-74678571D02*
X147464287Y-75678571D01*
X147821429Y-74678571D02*
X147464287Y-75678571D01*
X147321429Y-76035714D01*
X147250001Y-76107143D01*
X147107144Y-76178571D01*
X163964287Y-75678571D02*
X163107144Y-75678571D01*
X163535716Y-75678571D02*
X163535716Y-74178571D01*
X163392859Y-74392857D01*
X163250001Y-74535714D01*
X163107144Y-74607143D01*
X165250001Y-74178571D02*
X164964287Y-74178571D01*
X164821430Y-74250000D01*
X164750001Y-74321429D01*
X164607144Y-74535714D01*
X164535715Y-74821429D01*
X164535715Y-75392857D01*
X164607144Y-75535714D01*
X164678572Y-75607143D01*
X164821430Y-75678571D01*
X165107144Y-75678571D01*
X165250001Y-75607143D01*
X165321430Y-75535714D01*
X165392858Y-75392857D01*
X165392858Y-75035714D01*
X165321430Y-74892857D01*
X165250001Y-74821429D01*
X165107144Y-74750000D01*
X164821430Y-74750000D01*
X164678572Y-74821429D01*
X164607144Y-74892857D01*
X164535715Y-75035714D01*
X166035715Y-75107143D02*
X167178572Y-75107143D01*
X167964286Y-75678571D02*
X168250001Y-75678571D01*
X168392858Y-75607143D01*
X168464286Y-75535714D01*
X168607144Y-75321429D01*
X168678572Y-75035714D01*
X168678572Y-74464286D01*
X168607144Y-74321429D01*
X168535715Y-74250000D01*
X168392858Y-74178571D01*
X168107144Y-74178571D01*
X167964286Y-74250000D01*
X167892858Y-74321429D01*
X167821429Y-74464286D01*
X167821429Y-74821429D01*
X167892858Y-74964286D01*
X167964286Y-75035714D01*
X168107144Y-75107143D01*
X168392858Y-75107143D01*
X168535715Y-75035714D01*
X168607144Y-74964286D01*
X168678572Y-74821429D01*
X170250000Y-74178571D02*
X170750000Y-75678571D01*
X171250000Y-74178571D01*
X172392857Y-75607143D02*
X172250000Y-75678571D01*
X171964286Y-75678571D01*
X171821428Y-75607143D01*
X171750000Y-75535714D01*
X171678571Y-75392857D01*
X171678571Y-74964286D01*
X171750000Y-74821429D01*
X171821428Y-74750000D01*
X171964286Y-74678571D01*
X172250000Y-74678571D01*
X172392857Y-74750000D01*
X173678571Y-75607143D02*
X173535714Y-75678571D01*
X173250000Y-75678571D01*
X173107142Y-75607143D01*
X173035714Y-75535714D01*
X172964285Y-75392857D01*
X172964285Y-74964286D01*
X173035714Y-74821429D01*
X173107142Y-74750000D01*
X173250000Y-74678571D01*
X173535714Y-74678571D01*
X173678571Y-74750000D01*
X175464285Y-75678571D02*
X175464285Y-74178571D01*
X176178571Y-74678571D02*
X176178571Y-75678571D01*
X176178571Y-74821429D02*
X176249999Y-74750000D01*
X176392857Y-74678571D01*
X176607142Y-74678571D01*
X176749999Y-74750000D01*
X176821428Y-74892857D01*
X176821428Y-75678571D01*
X114571429Y-75678571D02*
X114071429Y-74964286D01*
X113714286Y-75678571D02*
X113714286Y-74178571D01*
X114285714Y-74178571D01*
X114428572Y-74250000D01*
X114500000Y-74321429D01*
X114571429Y-74464286D01*
X114571429Y-74678571D01*
X114500000Y-74821429D01*
X114428572Y-74892857D01*
X114285714Y-74964286D01*
X113714286Y-74964286D01*
X115714286Y-74892857D02*
X115214286Y-74892857D01*
X115214286Y-75678571D02*
X115214286Y-74178571D01*
X115928572Y-74178571D01*
X117642857Y-75678571D02*
X117642857Y-74178571D01*
X118000000Y-74178571D01*
X118214285Y-74250000D01*
X118357143Y-74392857D01*
X118428571Y-74535714D01*
X118500000Y-74821429D01*
X118500000Y-75035714D01*
X118428571Y-75321429D01*
X118357143Y-75464286D01*
X118214285Y-75607143D01*
X118000000Y-75678571D01*
X117642857Y-75678571D01*
X119714285Y-75607143D02*
X119571428Y-75678571D01*
X119285714Y-75678571D01*
X119142857Y-75607143D01*
X119071428Y-75464286D01*
X119071428Y-74892857D01*
X119142857Y-74750000D01*
X119285714Y-74678571D01*
X119571428Y-74678571D01*
X119714285Y-74750000D01*
X119785714Y-74892857D01*
X119785714Y-75035714D01*
X119071428Y-75178571D01*
X120214285Y-74678571D02*
X120785714Y-74678571D01*
X120428571Y-74178571D02*
X120428571Y-75464286D01*
X120499999Y-75607143D01*
X120642857Y-75678571D01*
X120785714Y-75678571D01*
X121285714Y-75535714D02*
X121357142Y-75607143D01*
X121285714Y-75678571D01*
X121214285Y-75607143D01*
X121285714Y-75535714D01*
X121285714Y-75678571D01*
D12*
X164540000Y-98683000D02*
X164540000Y-97286000D01*
X162000000Y-98683000D02*
X162000000Y-97286000D01*
X159460000Y-98683000D02*
X159460000Y-97286000D01*
X164514472Y-111764000D02*
G75*
G03X164514472Y-111764000I-2514472J0D01*
G01*
X156666000Y-107192000D02*
X156666000Y-115193000D01*
X156666000Y-115193000D02*
X167334000Y-115193000D01*
X167334000Y-115193000D02*
X167334000Y-107192000D01*
X156666000Y-98683000D02*
X156666000Y-107192000D01*
X156666000Y-107192000D02*
X167334000Y-107192000D01*
X167334000Y-107192000D02*
X167334000Y-98683000D01*
X162000000Y-98683000D02*
X167334000Y-98683000D01*
X162000000Y-98683000D02*
X156666000Y-98683000D01*
D13*
X108390000Y-89650000D02*
X151570000Y-89650000D01*
X151570000Y-89650000D02*
X151570000Y-102350000D01*
X151570000Y-102350000D02*
X108390000Y-102350000D01*
X108390000Y-102350000D02*
X108390000Y-89650000D01*
X108390000Y-97270000D02*
X109660000Y-97270000D01*
X109660000Y-97270000D02*
X109660000Y-94730000D01*
X109660000Y-94730000D02*
X108390000Y-94730000D01*
D12*
X145579000Y-109738000D02*
X145579000Y-111262000D01*
X145706000Y-111643000D02*
X145706000Y-109357000D01*
X145833000Y-109103000D02*
X145833000Y-111897000D01*
X145960000Y-112151000D02*
X145960000Y-108849000D01*
X146087000Y-108722000D02*
X146087000Y-112278000D01*
X145198000Y-107198000D02*
X145198000Y-113802000D01*
X145198000Y-113802000D02*
X151040000Y-113802000D01*
X151040000Y-113802000D02*
X151802000Y-113040000D01*
X151802000Y-113040000D02*
X151802000Y-107960000D01*
X151802000Y-107960000D02*
X151040000Y-107198000D01*
X151040000Y-107198000D02*
X145198000Y-107198000D01*
X150659000Y-110500000D02*
X149897000Y-110500000D01*
X150278000Y-110119000D02*
X150278000Y-110881000D01*
X151548000Y-110500000D02*
G75*
G03X151548000Y-110500000I-3048000J0D01*
G01*
D14*
X172870000Y-83520000D02*
X172870000Y-77520000D01*
X172870000Y-77520000D02*
X167590000Y-77520000D01*
X167590000Y-77520000D02*
X167590000Y-83520000D01*
X167590000Y-83520000D02*
X172870000Y-83520000D01*
X171500000Y-77520000D02*
X171500000Y-78520000D01*
X171500000Y-78520000D02*
X168960000Y-78520000D01*
X168960000Y-78520000D02*
X168960000Y-77520000D01*
X171500000Y-78520000D02*
X171250000Y-78950000D01*
X171250000Y-78950000D02*
X169210000Y-78950000D01*
X169210000Y-78950000D02*
X168960000Y-78520000D01*
X171250000Y-77520000D02*
X171250000Y-78520000D01*
X169210000Y-77520000D02*
X169210000Y-78520000D01*
X172300000Y-83520000D02*
X172300000Y-82900000D01*
X172300000Y-82900000D02*
X170700000Y-82900000D01*
X170700000Y-82900000D02*
X170700000Y-83520000D01*
X169760000Y-83520000D02*
X169760000Y-82900000D01*
X169760000Y-82900000D02*
X168160000Y-82900000D01*
X168160000Y-82900000D02*
X168160000Y-83520000D01*
X148870000Y-83520000D02*
X148870000Y-77520000D01*
X148870000Y-77520000D02*
X138510000Y-77520000D01*
X138510000Y-77520000D02*
X138510000Y-83520000D01*
X138510000Y-83520000D02*
X148870000Y-83520000D01*
X147500000Y-77520000D02*
X147500000Y-78520000D01*
X147500000Y-78520000D02*
X139880000Y-78520000D01*
X139880000Y-78520000D02*
X139880000Y-77520000D01*
X147500000Y-78520000D02*
X147250000Y-78950000D01*
X147250000Y-78950000D02*
X140130000Y-78950000D01*
X140130000Y-78950000D02*
X139880000Y-78520000D01*
X147250000Y-77520000D02*
X147250000Y-78520000D01*
X140130000Y-77520000D02*
X140130000Y-78520000D01*
X148300000Y-83520000D02*
X148300000Y-82900000D01*
X148300000Y-82900000D02*
X146700000Y-82900000D01*
X146700000Y-82900000D02*
X146700000Y-83520000D01*
X145760000Y-83520000D02*
X145760000Y-82900000D01*
X145760000Y-82900000D02*
X144160000Y-82900000D01*
X144160000Y-82900000D02*
X144160000Y-83520000D01*
X143220000Y-83520000D02*
X143220000Y-82900000D01*
X143220000Y-82900000D02*
X141620000Y-82900000D01*
X141620000Y-82900000D02*
X141620000Y-83520000D01*
X140680000Y-83520000D02*
X140680000Y-82900000D01*
X140680000Y-82900000D02*
X139080000Y-82900000D01*
X139080000Y-82900000D02*
X139080000Y-83520000D01*
D15*
X116254000Y-77706000D02*
X125906000Y-77706000D01*
X116254000Y-78214000D02*
X125906000Y-78214000D01*
X111682000Y-83675000D02*
X122858000Y-83675000D01*
X126160000Y-77325000D02*
X105840000Y-77325000D01*
X115746000Y-77706000D02*
X106094000Y-77706000D01*
X115746000Y-78214000D02*
X106094000Y-78214000D01*
X106094000Y-78214000D02*
X106094000Y-77325000D01*
X125906000Y-78214000D02*
X125906000Y-77325000D01*
X116254000Y-78214000D02*
X116254000Y-77325000D01*
X115746000Y-78214000D02*
X115746000Y-77325000D01*
X110158000Y-83675000D02*
X105840000Y-83675000D01*
X123112000Y-83421000D02*
X124128000Y-83421000D01*
X123112000Y-83421000D02*
X122858000Y-83675000D01*
X124128000Y-83421000D02*
X124382000Y-83675000D01*
X124382000Y-83675000D02*
X126160000Y-83675000D01*
X111428000Y-83421000D02*
X111682000Y-83675000D01*
X110412000Y-83421000D02*
X110158000Y-83675000D01*
X110412000Y-83421000D02*
X111428000Y-83421000D01*
X126160000Y-77325000D02*
X126160000Y-83675000D01*
X105840000Y-83675000D02*
X105840000Y-77325000D01*
D12*
X160989175Y-117302221D02*
X160989175Y-118111745D01*
X161036794Y-118206983D01*
X161084413Y-118254602D01*
X161179651Y-118302221D01*
X161370128Y-118302221D01*
X161465366Y-118254602D01*
X161512985Y-118206983D01*
X161560604Y-118111745D01*
X161560604Y-117302221D01*
X162560604Y-118302221D02*
X161989175Y-118302221D01*
X162274889Y-118302221D02*
X162274889Y-117302221D01*
X162179651Y-117445078D01*
X162084413Y-117540316D01*
X161989175Y-117587935D01*
D16*
X115925333Y-91216333D02*
X115925333Y-92655667D01*
X116010000Y-92825000D01*
X116094667Y-92909667D01*
X116264000Y-92994333D01*
X116602667Y-92994333D01*
X116772000Y-92909667D01*
X116856667Y-92825000D01*
X116941333Y-92655667D01*
X116941333Y-91216333D01*
X118550000Y-91809000D02*
X118550000Y-92994333D01*
X118126667Y-91131667D02*
X117703334Y-92401667D01*
X118804000Y-92401667D01*
D12*
X148333334Y-106539143D02*
X148285715Y-106586762D01*
X148142858Y-106634381D01*
X148047620Y-106634381D01*
X147904762Y-106586762D01*
X147809524Y-106491524D01*
X147761905Y-106396286D01*
X147714286Y-106205810D01*
X147714286Y-106062952D01*
X147761905Y-105872476D01*
X147809524Y-105777238D01*
X147904762Y-105682000D01*
X148047620Y-105634381D01*
X148142858Y-105634381D01*
X148285715Y-105682000D01*
X148333334Y-105729619D01*
X149190477Y-105967714D02*
X149190477Y-106634381D01*
X148952381Y-105586762D02*
X148714286Y-106301048D01*
X149333334Y-106301048D01*
X95666667Y-69252381D02*
X95666667Y-69966667D01*
X95619047Y-70109524D01*
X95523809Y-70204762D01*
X95380952Y-70252381D01*
X95285714Y-70252381D01*
X96571429Y-69585714D02*
X96571429Y-70252381D01*
X96333333Y-69204762D02*
X96095238Y-69919048D01*
X96714286Y-69919048D01*
M02*
